<svg width="185" height="151" viewBox="0 0 185 151" fill="none" xmlns="http://www.w3.org/2000/svg">
<path d="M138.393 115.434C129.602 129.279 116.489 139.836 101.088 145.468C85.6861 151.101 68.8564 151.494 53.2085 146.587C37.5606 141.68 23.969 131.747 14.5414 118.329C5.11376 104.91 0.377038 88.756 1.06576 72.3713C1.75448 55.9865 7.83016 40.2868 18.3506 27.7069C28.871 15.1269 43.2483 6.36968 59.2528 2.79328C75.2573 -0.783131 91.9946 1.02112 106.869 7.92623C121.744 14.8313 133.924 26.4514 141.522 40.9845" stroke="#7ADAA2" stroke-width="2"/>
<path d="M45.9015 63.4545C45.9015 59.2678 43.3958 56.7301 40.008 56.7301C36.6074 56.7301 34.1081 59.2678 34.1081 63.4545C34.1081 67.6349 36.6074 70.179 40.008 70.179C43.3958 70.179 45.9015 67.6413 45.9015 63.4545ZM43.9455 63.4545C43.9455 66.6442 42.258 68.3764 40.008 68.3764C37.7516 68.3764 36.0705 66.6442 36.0705 63.4545C36.0705 60.2649 37.7516 58.5327 40.008 58.5327C42.258 58.5327 43.9455 60.2649 43.9455 63.4545ZM55.7852 56.5256C55.3058 56.9091 54.5771 56.9091 53.5607 56.9027C53.2603 56.9027 52.9343 56.9027 52.5763 56.9091C49.3931 56.973 47.7823 59.2358 47.7823 63.723V64.6946C47.7823 68.2997 49.5721 70.1982 52.3143 70.1982C55.0565 70.1982 56.8335 68.2933 56.8335 65.2379C56.8335 62.2209 55.0884 60.5526 52.7234 60.5526C51.2979 60.5526 50.109 61.1598 49.4698 62.3743H49.3484C49.5657 59.8878 50.4989 58.6541 52.6211 58.5902C54.5067 58.5327 55.7021 58.5391 56.5778 57.7337L55.7852 56.5256ZM52.3207 68.5938C50.6971 68.5938 49.7063 67.2962 49.7063 65.2699C49.7319 63.282 50.7099 62.1442 52.3015 62.1442C53.9187 62.1442 54.9031 63.282 54.9031 65.2699C54.9031 67.3026 53.9187 68.5938 52.3207 68.5938ZM63.104 70.1982C65.4244 70.1982 66.9265 68.8047 67.1374 66.8935H65.2773C65.0344 67.9545 64.2099 68.581 63.1168 68.581C61.4996 68.581 60.4577 67.2322 60.4577 65.0909C60.4577 62.9879 61.5188 61.6648 63.1168 61.6648C64.3313 61.6648 65.0728 62.4318 65.2773 63.3523H67.1374C66.9329 61.3707 65.3157 60.054 63.0849 60.054C60.3171 60.054 58.5273 62.1378 58.5273 65.1357C58.5273 68.0952 60.2532 70.1982 63.104 70.1982ZM70.3894 73.6818C71.9682 73.6818 72.9654 72.8572 73.5343 71.3104L77.5932 60.201L75.5286 60.1818L73.0421 67.8011H72.9398L70.4533 60.1818H68.4078L72.0002 70.1278L71.7637 70.7798C71.2779 72.0838 70.5939 72.1925 69.5456 71.9048L69.0854 73.4709C69.3155 73.5732 69.8141 73.6818 70.3894 73.6818ZM77.6268 72.8317H79.5188V70H86.3647V72.8317H88.2312V68.3445H86.7227V60.1818H80.0494L79.7425 63.8445C79.538 66.3182 79.2376 67.6094 78.4258 68.3445H77.6268V72.8317ZM80.4712 68.3445C81.1232 67.4304 81.3661 65.9091 81.5579 63.8445L81.7624 61.8182H84.8562V68.3445H80.4712ZM91.9721 67.3217V60.1818H90.0993V70H92.1767L96.4849 62.8537V70H98.3578V60.1818H96.2995L91.9721 67.3217ZM99.7097 61.831H102.925V70H104.791V61.831H107.994V60.1818H99.7097V61.831ZM111.888 63.5568V60.1818H110.015V70H114.304C116.708 70 118.05 68.6065 118.05 66.7592C118.05 64.8736 116.708 63.5568 114.304 63.5568H111.888ZM111.888 65.206H114.304C115.404 65.206 116.19 65.8707 116.19 66.8168C116.19 67.7116 115.404 68.3509 114.304 68.3509H111.888V65.206ZM45.8815 94H47.7416V85.831H52.0178V94H53.8907V84.1818H45.8815V94ZM56.4459 97.6818H58.3572V92.4723H58.4722C58.8174 93.0987 59.5205 94.1918 61.3103 94.1918C63.6881 94.1918 65.414 92.2869 65.414 89.1101C65.414 85.9268 63.6626 84.054 61.2911 84.054C59.4694 84.054 58.811 85.1662 58.4722 85.7734H58.3124V84.1818H56.4459V97.6818ZM58.3188 89.0909C58.3188 87.0391 59.2137 85.6776 60.882 85.6776C62.6143 85.6776 63.4836 87.1413 63.4836 89.0909C63.4836 91.0597 62.5887 92.5618 60.882 92.5618C59.2393 92.5618 58.3188 91.1555 58.3188 89.0909ZM71.691 94.1982C74.4587 94.1982 76.2677 92.1719 76.2677 89.1357C76.2677 86.0803 74.4587 84.054 71.691 84.054C68.9232 84.054 67.1143 86.0803 67.1143 89.1357C67.1143 92.1719 68.9232 94.1982 71.691 94.1982ZM71.6974 92.5938C69.8884 92.5938 69.0447 91.0149 69.0447 89.1293C69.0447 87.25 69.8884 85.652 71.6974 85.652C73.4935 85.652 74.3373 87.25 74.3373 89.1293C74.3373 91.0149 73.4935 92.5938 71.6974 92.5938ZM82.6325 94.1982C84.7739 94.1982 86.2888 93.1435 86.7235 91.5455L84.9145 91.2195C84.5693 92.1463 83.7384 92.6193 82.6517 92.6193C81.0154 92.6193 79.9159 91.5582 79.8648 89.6662H86.8449V88.9886C86.8449 85.4411 84.7227 84.054 82.4983 84.054C79.7625 84.054 77.96 86.1378 77.96 89.1548C77.96 92.2038 79.7369 94.1982 82.6325 94.1982ZM79.8712 88.2344C79.9479 86.8409 80.9578 85.6328 82.5111 85.6328C83.9941 85.6328 84.9656 86.7322 84.972 88.2344H79.8712ZM88.9655 94H90.8767V90.0753H92.1167L95.0763 94H97.4477L93.5997 88.9567L97.403 84.1818H95.0379L91.7971 88.2983H90.8767V84.1818H88.9655V94ZM98.3825 85.831H101.598V94H103.464V85.831H106.667V84.1818H98.3825V85.831Z" fill="#7ADAA2"/>
<rect x="146" y="77" width="37" height="2" rx="1" fill="#7ADAA2"/>
<rect x="174" y="84.6" width="11.679" height="2" rx="1" transform="rotate(-45 174 84.6)" fill="#7ADAA2"/>
<rect x="175.414" y="69.5" width="11.679" height="2" rx="1" transform="rotate(45 175.414 69.5)" fill="#7ADAA2"/>
</svg>
