<svg width="15" height="10" viewBox="0 0 15 10" fill="none" xmlns="http://www.w3.org/2000/svg">
<path d="M14.5874 4.79371L10.2124 0.418708C10.0985 0.304767 9.91389 0.304767 9.79998 0.418708C9.68604 0.532649 9.68604 0.71722 9.79998 0.831134L13.6771 4.70826H0.964527C0.803309 4.70826 0.672852 4.83872 0.672852 4.99993C0.672852 5.16115 0.803309 5.29161 0.964527 5.29161H13.6771L9.79998 9.16871C9.68604 9.28265 9.68604 9.46722 9.79998 9.58113C9.85693 9.63809 9.93158 9.66658 10.0062 9.66658C10.0808 9.66658 10.1554 9.63809 10.2124 9.58113L14.5874 5.20613C14.7013 5.09222 14.7013 4.90765 14.5874 4.79371Z" fill="#BCC5D4"/>
</svg>
