<svg width="46" height="46" viewBox="0 0 46 46" fill="none" xmlns="http://www.w3.org/2000/svg">
<path d="M39.1822 0H6.81782C3.05244 0 0 3.05244 0 6.81782V39.1822C0 42.9476 3.05244 46 6.81782 46H39.1822C42.9476 46 46 42.9476 46 39.1822V6.81782C46 3.05244 42.9476 0 39.1822 0Z" fill="#CEA4F9"/>
<path d="M35 23C35 23 30.1659 31 23 31C15.8341 31 11 23 11 23C11 23 15.8341 15 23 15C30.1659 15 35 23 35 23ZM28.9147 23C28.9147 19.8979 26.2417 17.3945 23.0569 17.3945C19.8152 17.3945 17.1991 19.9524 17.1991 23C17.1991 26.102 19.872 28.6055 23.0569 28.6055C26.2417 28.6055 28.9147 26.0476 28.9147 23ZM23 20.4422C21.5782 20.4422 20.3839 21.6394 20.3839 23C20.3839 24.3605 21.5782 25.5034 23 25.5034C24.4218 25.5034 25.673 24.3605 25.673 23C25.673 21.6394 24.4218 20.4422 23 20.4422Z" fill="white"/>
</svg>
