<svg width="46" height="46" viewBox="0 0 46 46" fill="none" xmlns="http://www.w3.org/2000/svg">
<path d="M33.874 1.29565H12.1261C6.14489 1.29565 1.29614 6.14441 1.29614 12.1256V33.8735C1.29614 39.8547 6.14489 44.7035 12.1261 44.7035H33.874C39.8552 44.7035 44.704 39.8547 44.704 33.8735V12.1256C44.704 6.14441 39.8552 1.29565 33.874 1.29565Z" fill="#F4B755" stroke="#FFB43B" stroke-width="1.18" stroke-miterlimit="10"/>
<path d="M14.3668 16.6729L11.7087 19.3749V11.7083H19.3754L16.7173 14.3663L20.9351 18.5621L18.4967 20.9346L14.3668 16.6729ZM20.9571 27.5029L16.7173 31.6328L19.3754 34.2909H11.7087V26.6242L14.3668 29.2603L18.4967 25.0645L20.9571 27.5029ZM25.087 18.5621L29.3047 14.3663L26.6247 11.7083H34.2914V19.3749L31.6333 16.7388L27.4375 20.9346L25.087 18.5621ZM34.3133 26.6242V34.2909H26.6247L29.2828 31.6328L25.065 27.5029L27.4375 25.0645L31.6333 29.2603L34.3133 26.6242Z" fill="white"/>
</svg>
