<svg width="46" height="46" viewBox="0 0 46 46" fill="none" xmlns="http://www.w3.org/2000/svg">
<path d="M39.1822 0H6.81782C3.05244 0 0 3.05244 0 6.81782V39.1822C0 42.9476 3.05244 46 6.81782 46H39.1822C42.9476 46 46 42.9476 46 39.1822V6.81782C46 3.05244 42.9476 0 39.1822 0Z" fill="#87D0F0"/>
<path d="M25.3436 15.9488V14.7313H13.8182V24.045H15.4212V26.6828H12.8443C12.365 26.6777 11.9066 26.4864 11.5658 26.1494C11.225 25.8124 11.0286 25.3561 11.0181 24.8769V13.94C11.0233 13.4573 11.2174 12.9958 11.5588 12.6545C11.9001 12.3131 12.3616 12.119 12.8443 12.1138H26.3785C26.6156 12.1164 26.8499 12.1658 27.068 12.259C27.2861 12.3522 27.4837 12.4874 27.6495 12.657C27.8153 12.8266 27.9461 13.0272 28.0344 13.2473C28.1227 13.4674 28.1668 13.7028 28.1641 13.94V15.9691L25.3436 15.9488ZM33.176 18.3634C33.6514 18.3688 34.1056 18.5614 34.4399 18.8995C34.7742 19.2376 34.9616 19.6939 34.9616 20.1693V31.3498C34.9616 31.8252 34.7742 32.2815 34.4399 32.6196C34.1056 32.9577 33.6514 33.1503 33.176 33.1557H19.6418C19.1661 33.1453 18.7127 32.9517 18.3763 32.6153C18.0398 32.2788 17.8462 31.8255 17.8359 31.3498V20.1693C17.8462 19.6936 18.0398 19.2403 18.3763 18.9038C18.7127 18.5674 19.1661 18.3738 19.6418 18.3634H33.176ZM20.6158 20.9607V30.5584H32.202V20.9607H20.6158Z" fill="white"/>
</svg>
