<svg width="32" height="32" viewBox="0 0 32 32" fill="none" xmlns="http://www.w3.org/2000/svg">
<path fill-rule="evenodd" clip-rule="evenodd" d="M0 16C0 7.16344 7.16344 0 16 0C24.8366 0 32 7.16344 32 16C32 24.8366 24.8366 32 16 32C7.16344 32 0 24.8366 0 16Z" fill="#BCC5D4"/>
<g clip-path="url(#clip0)">
<path d="M14.2781 18.1206L14.0134 21.8433C14.3921 21.8433 14.5561 21.6806 14.7528 21.4853L16.5281 19.7886L20.2068 22.4826C20.8814 22.8586 21.3568 22.6606 21.5388 21.8619L23.9534 10.5473L23.9541 10.5466C24.1681 9.54928 23.5934 9.15928 22.9361 9.40394L8.74278 14.8379C7.77412 15.2139 7.78879 15.7539 8.57812 15.9986L12.2068 17.1273L20.6354 11.8533C21.0321 11.5906 21.3928 11.7359 21.0961 11.9986L14.2781 18.1206Z" fill="white"/>
</g>
<defs>
<clipPath id="clip0">
<rect width="16" height="16" fill="white" transform="translate(8 8)"/>
</clipPath>
</defs>
</svg>
