<svg width="18" height="18" viewBox="0 0 18 18" fill="none" xmlns="http://www.w3.org/2000/svg">
<path d="M15.3322 0H2.66784C1.19443 0 0 1.19443 0 2.66784V15.3322C0 16.8056 1.19443 18 2.66784 18H15.3322C16.8056 18 18 16.8056 18 15.3322V2.66784C18 1.19443 16.8056 0 15.3322 0Z" fill="#87D0F0"/>
<path d="M9.98305 6.45805V5.99518H5.16949V9.53616H5.83898V10.5391H4.76271C4.56255 10.5371 4.37107 10.4644 4.22874 10.3362C4.08642 10.2081 4.00439 10.0346 4 9.85246V5.69431C4.0022 5.51079 4.08327 5.33535 4.22583 5.20558C4.36839 5.0758 4.56111 5.00201 4.76271 5H10.4153C10.5143 5.00101 10.6122 5.01977 10.7033 5.0552C10.7943 5.09064 10.8769 5.14207 10.9461 5.20654C11.0154 5.27102 11.07 5.34728 11.1069 5.43097C11.1437 5.51466 11.1621 5.60414 11.161 5.69431V6.46577L9.98305 6.45805ZM13.2542 7.37609C13.4528 7.37812 13.6425 7.45135 13.7821 7.57989C13.9217 7.70843 14 7.88191 14 8.06268V12.3134C14 12.4942 13.9217 12.6677 13.7821 12.7962C13.6425 12.9247 13.4528 12.998 13.2542 13H7.6017C7.40302 12.9961 7.21367 12.9225 7.07315 12.7945C6.93263 12.6666 6.85178 12.4943 6.84746 12.3134V8.06268C6.85178 7.88182 6.93263 7.70946 7.07315 7.58154C7.21367 7.45362 7.40302 7.38002 7.6017 7.37609H13.2542ZM8.00847 8.36355V12.0125H12.8475V8.36355H8.00847Z" fill="white"/>
</svg>
