<svg width="18" height="18" viewBox="0 0 18 18" fill="none" xmlns="http://www.w3.org/2000/svg">
<path d="M15.3322 0H2.66784C1.19443 0 0 1.19443 0 2.66784V15.3322C0 16.8056 1.19443 18 2.66784 18H15.3322C16.8056 18 18 16.8056 18 15.3322V2.66784C18 1.19443 16.8056 0 15.3322 0Z" fill="#CEA4F9"/>
<path d="M14 8.99999C14 8.99999 11.9858 12 9 12C6.01422 12 4 8.99999 4 8.99999C4 8.99999 6.01422 6 9 6C11.9858 6 14 8.99999 14 8.99999ZM11.4645 8.99999C11.4645 7.83673 10.3507 6.89795 9.0237 6.89795C7.67299 6.89795 6.58294 7.85714 6.58294 8.99999C6.58294 10.1633 7.69668 11.102 9.0237 11.102C10.3507 11.102 11.4645 10.1429 11.4645 8.99999ZM9 8.04082C8.40758 8.04082 7.90995 8.48979 7.90995 8.99999C7.90995 9.5102 8.40758 9.93878 9 9.93878C9.59242 9.93878 10.1137 9.5102 10.1137 8.99999C10.1137 8.48979 9.59242 8.04082 9 8.04082Z" fill="white"/>
</svg>
