<svg width="16" height="16" viewBox="0 0 16 16" fill="none" xmlns="http://www.w3.org/2000/svg">
<path d="M8 16C12.4115 16 16 12.4115 16 8C16 3.58853 12.4115 0 8 0C3.58853 0 0 3.58916 0 8C0 12.4108 3.58853 16 8 16ZM8 1.23934C11.7273 1.23934 14.7607 4.27203 14.7607 8C14.7607 11.728 11.7273 14.7607 8 14.7607C4.27203 14.7607 1.23934 11.728 1.23934 8C1.23934 4.27203 4.27266 1.23934 8 1.23934Z" fill="#344756"/>
<path d="M4.4617 7.14488L7.56008 10.2433C7.80177 10.4837 8.19215 10.4837 8.43383 10.2433L11.5322 7.14488C11.7311 6.91313 11.7311 6.57044 11.5322 6.33869C11.3097 6.07904 10.9181 6.04869 10.6585 6.27116L8.00005 8.92954L5.33545 6.27113C5.09377 6.03069 4.70339 6.03069 4.4617 6.27113C4.22126 6.51282 4.22126 6.90322 4.4617 7.14488Z" fill="#344756"/>
</svg>
