<svg width="398" height="545" viewBox="0 0 398 545" fill="none" xmlns="http://www.w3.org/2000/svg">
<g filter="url(#filter0_d)">
<rect x="9" width="380" height="477" rx="5" fill="#FCFCFD"/>
</g>
<rect x="38" y="40" width="110" height="26" rx="5" fill="#CEA4F9"/>
<path d="M96.65 59.905L96.56 58H90.26V50.155H91.505V56.95H95.21V50.155H96.455V56.95H97.655V59.905H96.65ZM102.437 58.135C101.317 58.135 100.402 57.77 99.692 57.04C98.992 56.31 98.642 55.35 98.642 54.16V54.04C98.642 52.86 98.982 51.895 99.662 51.145C100.352 50.395 101.237 50.02 102.317 50.02C103.317 50.02 104.152 50.345 104.822 50.995C105.502 51.635 105.842 52.61 105.842 53.92V54.325H99.932C99.992 56.175 100.832 57.1 102.452 57.1C103.682 57.1 104.377 56.645 104.537 55.735H105.782C105.642 56.515 105.277 57.11 104.687 57.52C104.097 57.93 103.347 58.135 102.437 58.135ZM104.567 53.32C104.457 51.81 103.707 51.055 102.317 51.055C101.687 51.055 101.167 51.255 100.757 51.655C100.347 52.055 100.087 52.61 99.977 53.32H104.567ZM109.236 54.97C109.146 56.05 108.956 56.84 108.666 57.34C108.376 57.83 107.921 58.075 107.301 58.075C107.171 58.075 107.036 58.065 106.896 58.045L106.776 58V56.815L106.881 56.845C106.981 56.865 107.086 56.875 107.196 56.875C107.356 56.875 107.486 56.83 107.586 56.74C107.696 56.64 107.781 56.485 107.841 56.275C107.911 56.065 107.961 55.87 107.991 55.69C108.021 55.5 108.056 55.235 108.096 54.895C108.136 54.535 108.196 53.515 108.276 51.835L108.321 50.155H113.496V58H112.251V51.205H109.431C109.341 53.365 109.276 54.62 109.236 54.97ZM116.012 50.155H117.257V52.9H118.652C119.532 52.9 120.252 53.115 120.812 53.545C121.372 53.975 121.652 54.615 121.652 55.465V55.51C121.652 56.37 121.372 57 120.812 57.4C120.262 57.8 119.542 58 118.652 58H116.012V50.155ZM118.727 57.025C119.327 57.025 119.757 56.9 120.017 56.65C120.277 56.39 120.407 56.01 120.407 55.51V55.465C120.407 54.925 120.272 54.53 120.002 54.28C119.742 54.02 119.317 53.89 118.727 53.89H117.257V57.025H118.727Z" fill="white"/>
<path d="M71 61C75.4183 61 79 57.4183 79 53C79 48.5817 75.4183 45 71 45C66.5817 45 63 48.5817 63 53C63 57.4183 66.5817 61 71 61Z" fill="white"/>
<path d="M66.4067 53.0767L69.4307 56.1006L75.6316 49.8997" stroke="#CEA4F9" stroke-width="2.514" stroke-miterlimit="10"/>
<path d="M68.925 97.035C70.095 97.095 71.055 97.47 71.805 98.16C72.565 98.85 72.945 99.8 72.945 101.01V101.13C72.945 102.35 72.57 103.305 71.82 103.995C71.07 104.685 70.105 105.06 68.925 105.12V107.73H67.695V105.12C66.525 105.06 65.56 104.685 64.8 103.995C64.05 103.305 63.675 102.355 63.675 101.145V101.025C63.675 99.805 64.05 98.85 64.8 98.16C65.55 97.47 66.515 97.095 67.695 97.035V93.405H68.925V97.035ZM67.695 97.98C66.885 98.02 66.225 98.305 65.715 98.835C65.205 99.355 64.95 100.08 64.95 101.01V101.115C64.95 102.065 65.205 102.805 65.715 103.335C66.225 103.865 66.885 104.14 67.695 104.16V97.98ZM68.925 104.175C69.735 104.155 70.395 103.88 70.905 103.35C71.415 102.81 71.67 102.075 71.67 101.145V101.04C71.67 100.08 71.415 99.345 70.905 98.835C70.405 98.315 69.745 98.035 68.925 97.995V104.175ZM78.2401 104.1C79.0201 104.1 79.6401 103.83 80.1001 103.29C80.5701 102.75 80.8051 102.035 80.8051 101.145V101.04C80.8051 100.13 80.5701 99.405 80.1001 98.865C79.6401 98.325 79.0201 98.055 78.2401 98.055C77.4501 98.055 76.8251 98.325 76.3651 98.865C75.9051 99.405 75.6751 100.125 75.6751 101.025V101.145C75.6751 102.055 75.9001 102.775 76.3501 103.305C76.8101 103.835 77.4401 104.1 78.2401 104.1ZM78.2251 105.135C77.1151 105.135 76.1951 104.76 75.4651 104.01C74.7451 103.25 74.3851 102.295 74.3851 101.145V101.025C74.3851 99.855 74.7451 98.895 75.4651 98.145C76.1951 97.395 77.1201 97.02 78.2401 97.02C79.3601 97.02 80.2801 97.395 81.0001 98.145C81.7301 98.885 82.0951 99.84 82.0951 101.01V101.13C82.0951 102.31 81.7301 103.275 81.0001 104.025C80.2701 104.765 79.3451 105.135 78.2251 105.135ZM84.0229 97.155H85.2679V98.475C85.4979 98.075 85.8579 97.735 86.3479 97.455C86.8379 97.165 87.3629 97.02 87.9229 97.02C88.9729 97.02 89.8279 97.375 90.4879 98.085C91.1579 98.795 91.4929 99.755 91.4929 100.965V101.085C91.4929 102.295 91.1629 103.275 90.5029 104.025C89.8529 104.765 88.9929 105.135 87.9229 105.135C86.7229 105.135 85.8379 104.66 85.2679 103.71V107.73H84.0229V97.155ZM87.8029 104.1C88.5829 104.1 89.1779 103.85 89.5879 103.35C89.9979 102.84 90.2029 102.105 90.2029 101.145V101.025C90.2029 100.075 89.9729 99.345 89.5129 98.835C89.0629 98.315 88.4879 98.055 87.7879 98.055C87.0279 98.055 86.4079 98.31 85.9279 98.82C85.4579 99.32 85.2229 100.055 85.2229 101.025V101.145C85.2229 102.115 85.4529 102.85 85.9129 103.35C86.3829 103.85 87.0129 104.1 87.8029 104.1ZM94.3871 98.385V105H93.3521V97.155H95.1071L97.3421 103.05L99.6371 97.155H101.347V105H100.117V98.385L97.5221 105H96.9521L94.3871 98.385ZM105.939 105.135C105.169 105.135 104.539 104.945 104.049 104.565C103.569 104.175 103.329 103.595 103.329 102.825C103.329 102.395 103.434 102.02 103.644 101.7C103.864 101.37 104.164 101.115 104.544 100.935C104.924 100.745 105.339 100.61 105.789 100.53C106.239 100.44 106.729 100.395 107.259 100.395H108.384V99.825C108.384 99.195 108.254 98.745 107.994 98.475C107.734 98.195 107.304 98.055 106.704 98.055C105.624 98.055 105.024 98.525 104.904 99.465H103.659C103.739 98.625 104.064 98.01 104.634 97.62C105.214 97.22 105.924 97.02 106.764 97.02C108.674 97.02 109.629 97.955 109.629 99.825V105H108.384V104.01C107.784 104.76 106.969 105.135 105.939 105.135ZM106.059 104.145C106.739 104.145 107.294 103.98 107.724 103.65C108.164 103.31 108.384 102.845 108.384 102.255V101.28H107.304C105.484 101.28 104.574 101.795 104.574 102.825C104.574 103.705 105.069 104.145 106.059 104.145ZM117.27 98.205H114.735V105H113.49V98.205H110.955V97.155H117.27V98.205Z" fill="#7ADAA2"/>
<rect x="38.5" y="87.5" width="104" height="25" rx="4.5" stroke="#7ADAA2"/>
<rect x="168" y="40" width="151" height="26" rx="5" fill="#87D0F0"/>
<path d="M222.315 58.135C221.545 58.135 220.915 57.945 220.425 57.565C219.945 57.175 219.705 56.595 219.705 55.825C219.705 55.395 219.81 55.02 220.02 54.7C220.24 54.37 220.54 54.115 220.92 53.935C221.3 53.745 221.715 53.61 222.165 53.53C222.615 53.44 223.105 53.395 223.635 53.395H224.76V52.825C224.76 52.195 224.63 51.745 224.37 51.475C224.11 51.195 223.68 51.055 223.08 51.055C222 51.055 221.4 51.525 221.28 52.465H220.035C220.115 51.625 220.44 51.01 221.01 50.62C221.59 50.22 222.3 50.02 223.14 50.02C225.05 50.02 226.005 50.955 226.005 52.825V58H224.76V57.01C224.16 57.76 223.345 58.135 222.315 58.135ZM222.435 57.145C223.115 57.145 223.67 56.98 224.1 56.65C224.54 56.31 224.76 55.845 224.76 55.255V54.28H223.68C221.86 54.28 220.95 54.795 220.95 55.825C220.95 56.705 221.445 57.145 222.435 57.145ZM230.421 57.19L227.346 50.155H228.681L231.081 55.78L233.256 50.155H234.531L230.196 60.73H228.936L230.421 57.19ZM237.083 54.97C236.973 55.89 236.803 56.55 236.573 56.95H240.248V51.175H237.368C237.318 52.395 237.223 53.66 237.083 54.97ZM235.523 59.905H234.518V56.95H235.073C235.353 56.88 235.548 56.68 235.658 56.35C235.768 56.01 235.863 55.525 235.943 54.895C236.033 54.085 236.118 53.065 236.198 51.835C236.238 51.285 236.268 50.725 236.288 50.155H241.463V56.95H242.663V59.905H241.658L241.568 58H235.613L235.523 59.905ZM244.225 58V50.155H245.47V56.2L249.475 50.155H250.72V58H249.475V51.955L245.47 58H244.225ZM258.592 51.205H256.057V58H254.812V51.205H252.277V50.155H258.592V51.205ZM263.376 57.1C264.156 57.1 264.776 56.83 265.236 56.29C265.706 55.75 265.941 55.035 265.941 54.145V54.04C265.941 53.13 265.706 52.405 265.236 51.865C264.776 51.325 264.156 51.055 263.376 51.055C262.586 51.055 261.961 51.325 261.501 51.865C261.041 52.405 260.811 53.125 260.811 54.025V54.145C260.811 55.055 261.036 55.775 261.486 56.305C261.946 56.835 262.576 57.1 263.376 57.1ZM263.361 58.135C262.251 58.135 261.331 57.76 260.601 57.01C259.881 56.25 259.521 55.295 259.521 54.145V54.025C259.521 52.855 259.881 51.895 260.601 51.145C261.331 50.395 262.256 50.02 263.376 50.02C264.496 50.02 265.416 50.395 266.136 51.145C266.866 51.885 267.231 52.84 267.231 54.01V54.13C267.231 55.31 266.866 56.275 266.136 57.025C265.406 57.765 264.481 58.135 263.361 58.135ZM269.159 50.155H270.404V51.475C270.634 51.075 270.994 50.735 271.484 50.455C271.974 50.165 272.499 50.02 273.059 50.02C274.109 50.02 274.964 50.375 275.624 51.085C276.294 51.795 276.629 52.755 276.629 53.965V54.085C276.629 55.295 276.299 56.275 275.639 57.025C274.989 57.765 274.129 58.135 273.059 58.135C271.859 58.135 270.974 57.66 270.404 56.71V60.73H269.159V50.155ZM272.939 57.1C273.719 57.1 274.314 56.85 274.724 56.35C275.134 55.84 275.339 55.105 275.339 54.145V54.025C275.339 53.075 275.109 52.345 274.649 51.835C274.199 51.315 273.624 51.055 272.924 51.055C272.164 51.055 271.544 51.31 271.064 51.82C270.594 52.32 270.359 53.055 270.359 54.025V54.145C270.359 55.115 270.589 55.85 271.049 56.35C271.519 56.85 272.149 57.1 272.939 57.1ZM278.473 58V50.155H279.718V56.2L283.723 50.155H284.968V58H283.723V51.955L279.718 58H278.473ZM289.945 51.145C288.825 51.145 288.265 51.62 288.265 52.57V52.615C288.265 53.065 288.395 53.405 288.655 53.635C288.915 53.865 289.345 53.98 289.945 53.98H291.415V51.145H289.945ZM287.875 58H286.45L288.835 54.715C287.625 54.465 287.02 53.765 287.02 52.615V52.57C287.02 51.75 287.3 51.145 287.86 50.755C288.42 50.355 289.14 50.155 290.02 50.155H292.66V58H291.415V54.925H290.065L287.875 58Z" fill="white"/>
<path d="M208 48.8826V49.2257L205.865 50.5885C205.923 50.9562 205.871 51.3326 205.717 51.6713C205.563 52.01 205.313 52.2961 204.998 52.4945C205.219 53.1825 205.263 53.9148 205.126 54.6243C204.99 55.3337 204.677 55.9974 204.217 56.5543C203.751 57.1901 203.091 57.6573 202.336 57.8859C201.582 58.1145 200.774 58.092 200.033 57.8218C199.709 57.736 199.738 57.9552 199.738 57.9552C200.119 59.5086 199.738 60.0518 198.889 60.1281C198.041 60.2043 198.127 58.7271 198.127 58.7271C196.535 60.1281 196.011 59.3466 196.135 58.8224C196.406 58.1674 196.816 57.5788 197.336 57.0975C196.588 57.1691 195.837 56.996 195.196 56.6042C194.555 56.2123 194.059 55.6229 193.781 54.9247C194.556 55.1233 195.36 55.1782 196.154 55.0867C196.768 54.9499 197.326 54.6295 197.753 54.1682C198.18 53.7069 198.457 53.1264 198.546 52.504C198.691 52.0466 198.938 51.6279 199.268 51.2796C199.598 50.9313 200.003 50.6624 200.452 50.4932C200.44 50.1145 200.506 49.7374 200.646 49.3852C200.785 49.0329 200.995 48.713 201.263 48.4451C201.531 48.1772 201.851 47.967 202.203 47.8276C202.556 47.6881 202.933 47.6223 203.311 47.6342C203.744 47.5818 204.181 47.6791 204.55 47.9097C204.919 48.1403 205.198 48.4903 205.341 48.9017L208 48.8826ZM203.578 50.5504C203.739 50.5523 203.897 50.5061 204.032 50.4178C204.166 50.3296 204.272 50.2031 204.334 50.0547C204.397 49.9063 204.413 49.7427 204.383 49.5847C204.352 49.4267 204.274 49.2814 204.16 49.1676C204.047 49.0537 203.901 48.9764 203.743 48.9454C203.585 48.9145 203.422 48.9313 203.273 48.9938C203.125 49.0563 202.998 49.1616 202.91 49.2963C202.822 49.4309 202.776 49.5888 202.778 49.7499C202.78 49.9614 202.865 50.1636 203.015 50.3132C203.164 50.4628 203.367 50.5479 203.578 50.5504Z" fill="white"/>
<rect x="189" y="86" width="150" height="26" rx="5" fill="#7ADAA2"/>
<path d="M244.605 104.135C243.485 104.135 242.565 103.775 241.845 103.055C241.125 102.325 240.765 101.36 240.765 100.16V100.04C240.765 98.86 241.13 97.895 241.86 97.145C242.6 96.395 243.505 96.02 244.575 96.02C245.475 96.02 246.24 96.245 246.87 96.695C247.5 97.135 247.87 97.825 247.98 98.765H246.75C246.57 97.625 245.845 97.055 244.575 97.055C243.845 97.055 243.24 97.33 242.76 97.88C242.29 98.42 242.055 99.14 242.055 100.04V100.16C242.055 101.1 242.285 101.825 242.745 102.335C243.215 102.845 243.84 103.1 244.62 103.1C245.21 103.1 245.715 102.935 246.135 102.605C246.565 102.265 246.81 101.79 246.87 101.18H248.025C247.945 102.04 247.585 102.75 246.945 103.31C246.315 103.86 245.535 104.135 244.605 104.135ZM255.32 97.205H252.785V104H251.54V97.205H249.005V96.155H255.32V97.205ZM257.126 96.155H258.371V97.475C258.601 97.075 258.961 96.735 259.451 96.455C259.941 96.165 260.466 96.02 261.026 96.02C262.076 96.02 262.931 96.375 263.591 97.085C264.261 97.795 264.596 98.755 264.596 99.965V100.085C264.596 101.295 264.266 102.275 263.606 103.025C262.956 103.765 262.096 104.135 261.026 104.135C259.826 104.135 258.941 103.66 258.371 102.71V106.73H257.126V96.155ZM260.906 103.1C261.686 103.1 262.281 102.85 262.691 102.35C263.101 101.84 263.306 101.105 263.306 100.145V100.025C263.306 99.075 263.076 98.345 262.616 97.835C262.166 97.315 261.591 97.055 260.891 97.055C260.131 97.055 259.511 97.31 259.031 97.82C258.561 98.32 258.326 99.055 258.326 100.025V100.145C258.326 101.115 258.556 101.85 259.016 102.35C259.486 102.85 260.116 103.1 260.906 103.1ZM268.574 103.19L265.499 96.155H266.834L269.234 101.78L271.409 96.155H272.684L268.349 106.73H267.089L268.574 103.19ZM275.479 99.995V104H274.234V96.155H275.479V99.815L278.734 96.155H280.189L276.829 99.845L280.474 104H278.959L275.479 99.995ZM287.473 97.205H284.938V104H283.693V97.205H281.158V96.155H287.473V97.205ZM291.689 103.19L288.614 96.155H289.949L292.349 101.78L294.524 96.155H295.799L291.464 106.73H290.204L291.689 103.19ZM297.439 96.155H298.684V97.475C298.914 97.075 299.274 96.735 299.764 96.455C300.254 96.165 300.779 96.02 301.339 96.02C302.389 96.02 303.244 96.375 303.904 97.085C304.574 97.795 304.909 98.755 304.909 99.965V100.085C304.909 101.295 304.579 102.275 303.919 103.025C303.269 103.765 302.409 104.135 301.339 104.135C300.139 104.135 299.254 103.66 298.684 102.71V106.73H297.439V96.155ZM301.219 103.1C301.999 103.1 302.594 102.85 303.004 102.35C303.414 101.84 303.619 101.105 303.619 100.145V100.025C303.619 99.075 303.389 98.345 302.929 97.835C302.479 97.315 301.904 97.055 301.204 97.055C300.444 97.055 299.824 97.31 299.344 97.82C298.874 98.32 298.639 99.055 298.639 100.025V100.145C298.639 101.115 298.869 101.85 299.329 102.35C299.799 102.85 300.429 103.1 301.219 103.1ZM308.808 104.135C308.038 104.135 307.408 103.945 306.918 103.565C306.438 103.175 306.198 102.595 306.198 101.825C306.198 101.395 306.303 101.02 306.513 100.7C306.733 100.37 307.033 100.115 307.413 99.935C307.793 99.745 308.208 99.61 308.658 99.53C309.108 99.44 309.598 99.395 310.128 99.395H311.253V98.825C311.253 98.195 311.123 97.745 310.863 97.475C310.603 97.195 310.173 97.055 309.573 97.055C308.493 97.055 307.893 97.525 307.773 98.465H306.528C306.608 97.625 306.933 97.01 307.503 96.62C308.083 96.22 308.793 96.02 309.633 96.02C311.543 96.02 312.498 96.955 312.498 98.825V104H311.253V103.01C310.653 103.76 309.838 104.135 308.808 104.135ZM308.928 103.145C309.608 103.145 310.163 102.98 310.593 102.65C311.033 102.31 311.253 101.845 311.253 101.255V100.28H310.173C308.353 100.28 307.443 100.795 307.443 101.825C307.443 102.705 307.938 103.145 308.928 103.145Z" fill="white"/>
<path d="M221.5 106C225.09 106 228 103.09 228 99.5C228 95.9101 225.09 93 221.5 93C217.91 93 215 95.9101 215 99.5C215 103.09 217.91 106 221.5 106Z" stroke="white" stroke-width="1.18" stroke-miterlimit="10"/>
<path d="M218.4 100.5C218.842 100.5 219.2 100.142 219.2 99.6999C219.2 99.2581 218.842 98.8999 218.4 98.8999C217.958 98.8999 217.6 99.2581 217.6 99.6999C217.6 100.142 217.958 100.5 218.4 100.5Z" fill="white"/>
<path d="M221.6 100.5C222.042 100.5 222.4 100.142 222.4 99.6999C222.4 99.2581 222.042 98.8999 221.6 98.8999C221.158 98.8999 220.8 99.2581 220.8 99.6999C220.8 100.142 221.158 100.5 221.6 100.5Z" fill="white"/>
<path d="M224.8 100.5C225.242 100.5 225.6 100.142 225.6 99.6999C225.6 99.2581 225.242 98.8999 224.8 98.8999C224.358 98.8999 224 99.2581 224 99.6999C224 100.142 224.358 100.5 224.8 100.5Z" fill="white"/>
<rect x="213" y="179" width="134" height="26" rx="5" fill="#CEA4F9"/>
<path d="M265.26 189.155H268.005C269.845 189.155 270.765 189.82 270.765 191.15V191.195C270.765 191.575 270.66 191.925 270.45 192.245C270.24 192.555 269.925 192.765 269.505 192.875C270.595 193.115 271.14 193.705 271.14 194.645V194.69C271.14 195.45 270.89 196.025 270.39 196.415C269.9 196.805 269.215 197 268.335 197H265.26V189.155ZM266.505 190.145V192.47H268.005C268.525 192.47 268.895 192.375 269.115 192.185C269.345 191.995 269.46 191.685 269.46 191.255V191.21C269.46 190.81 269.34 190.535 269.1 190.385C268.87 190.225 268.5 190.145 267.99 190.145H266.505ZM266.505 193.46V196.01H268.215C268.765 196.01 269.17 195.915 269.43 195.725C269.7 195.525 269.835 195.205 269.835 194.765V194.72C269.835 194.28 269.7 193.96 269.43 193.76C269.17 193.56 268.765 193.46 268.215 193.46H266.505ZM276.426 197.135C275.306 197.135 274.391 196.77 273.681 196.04C272.981 195.31 272.631 194.35 272.631 193.16V193.04C272.631 191.86 272.971 190.895 273.651 190.145C274.341 189.395 275.226 189.02 276.306 189.02C277.306 189.02 278.141 189.345 278.811 189.995C279.491 190.635 279.831 191.61 279.831 192.92V193.325H273.921C273.981 195.175 274.821 196.1 276.441 196.1C277.671 196.1 278.366 195.645 278.526 194.735H279.771C279.631 195.515 279.266 196.11 278.676 196.52C278.086 196.93 277.336 197.135 276.426 197.135ZM278.556 192.32C278.446 190.81 277.696 190.055 276.306 190.055C275.676 190.055 275.156 190.255 274.746 190.655C274.336 191.055 274.076 191.61 273.966 192.32H278.556ZM281.742 189.155H282.987V190.475C283.217 190.075 283.577 189.735 284.067 189.455C284.557 189.165 285.082 189.02 285.642 189.02C286.692 189.02 287.547 189.375 288.207 190.085C288.877 190.795 289.212 191.755 289.212 192.965V193.085C289.212 194.295 288.882 195.275 288.222 196.025C287.572 196.765 286.712 197.135 285.642 197.135C284.442 197.135 283.557 196.66 282.987 195.71V199.73H281.742V189.155ZM285.522 196.1C286.302 196.1 286.897 195.85 287.307 195.35C287.717 194.84 287.922 194.105 287.922 193.145V193.025C287.922 192.075 287.692 191.345 287.232 190.835C286.782 190.315 286.207 190.055 285.507 190.055C284.747 190.055 284.127 190.31 283.647 190.82C283.177 191.32 282.942 192.055 282.942 193.025V193.145C282.942 194.115 283.172 194.85 283.632 195.35C284.102 195.85 284.732 196.1 285.522 196.1ZM294.401 197.135C293.281 197.135 292.361 196.775 291.641 196.055C290.921 195.325 290.561 194.36 290.561 193.16V193.04C290.561 191.86 290.926 190.895 291.656 190.145C292.396 189.395 293.301 189.02 294.371 189.02C295.271 189.02 296.036 189.245 296.666 189.695C297.296 190.135 297.666 190.825 297.776 191.765H296.546C296.366 190.625 295.641 190.055 294.371 190.055C293.641 190.055 293.036 190.33 292.556 190.88C292.086 191.42 291.851 192.14 291.851 193.04V193.16C291.851 194.1 292.081 194.825 292.541 195.335C293.011 195.845 293.636 196.1 294.416 196.1C295.006 196.1 295.511 195.935 295.931 195.605C296.361 195.265 296.606 194.79 296.666 194.18H297.821C297.741 195.04 297.381 195.75 296.741 196.31C296.111 196.86 295.331 197.135 294.401 197.135ZM305.116 190.205H302.581V197H301.336V190.205H298.801V189.155H305.116V190.205ZM308.077 192.995V197H306.832V189.155H308.077V192.815L311.332 189.155H312.787L309.427 192.845L313.072 197H311.557L308.077 192.995ZM316.548 197.135C315.778 197.135 315.148 196.945 314.658 196.565C314.178 196.175 313.938 195.595 313.938 194.825C313.938 194.395 314.043 194.02 314.253 193.7C314.473 193.37 314.773 193.115 315.153 192.935C315.533 192.745 315.948 192.61 316.398 192.53C316.848 192.44 317.338 192.395 317.868 192.395H318.993V191.825C318.993 191.195 318.863 190.745 318.603 190.475C318.343 190.195 317.913 190.055 317.313 190.055C316.233 190.055 315.633 190.525 315.513 191.465H314.268C314.348 190.625 314.673 190.01 315.243 189.62C315.823 189.22 316.533 189.02 317.373 189.02C319.283 189.02 320.238 189.955 320.238 191.825V197H318.993V196.01C318.393 196.76 317.578 197.135 316.548 197.135ZM316.668 196.145C317.348 196.145 317.903 195.98 318.333 195.65C318.773 195.31 318.993 194.845 318.993 194.255V193.28H317.913C316.093 193.28 315.183 193.795 315.183 194.825C315.183 195.705 315.678 196.145 316.668 196.145Z" fill="white"/>
<path d="M247.376 189.187V188.493H240.637V193.804H241.575V195.309H240.068C239.788 195.306 239.52 195.197 239.32 195.004C239.121 194.812 239.006 194.552 239 194.279V188.041C239.003 187.766 239.117 187.503 239.316 187.308C239.516 187.114 239.786 187.003 240.068 187H247.981C248.12 187.002 248.257 187.03 248.385 187.083C248.512 187.136 248.628 187.213 248.725 187.31C248.822 187.407 248.898 187.521 248.95 187.646C249.001 187.772 249.027 187.906 249.025 188.041V189.199L247.376 189.187ZM251.956 190.564C252.234 190.567 252.499 190.677 252.695 190.87C252.89 191.063 253 191.323 253 191.594V197.97C253 198.241 252.89 198.501 252.695 198.694C252.499 198.887 252.234 198.997 251.956 199H244.042C243.764 198.994 243.499 198.884 243.302 198.692C243.106 198.5 242.992 198.241 242.986 197.97V191.594C242.992 191.323 243.106 191.064 243.302 190.872C243.499 190.68 243.764 190.57 244.042 190.564H251.956ZM244.612 192.045V197.519H251.386V192.045H244.612Z" fill="white"/>
<rect x="39" y="179" width="127" height="26" rx="5" fill="#7ADAA2"/>
<path d="M92.79 193.97C92.68 194.89 92.51 195.55 92.28 195.95H95.955V190.175H93.075C93.025 191.395 92.93 192.66 92.79 193.97ZM91.23 198.905H90.225V195.95H90.78C91.06 195.88 91.255 195.68 91.365 195.35C91.475 195.01 91.57 194.525 91.65 193.895C91.74 193.085 91.825 192.065 91.905 190.835C91.945 190.285 91.975 189.725 91.995 189.155H97.17V195.95H98.37V198.905H97.365L97.275 197H91.32L91.23 198.905ZM99.9319 197V189.155H101.177V195.2L105.182 189.155H106.427V197H105.182V190.955L101.177 197H99.9319ZM113.849 191.195C113.849 191.585 113.734 191.945 113.504 192.275C113.284 192.595 112.969 192.795 112.559 192.875C113.069 192.965 113.474 193.16 113.774 193.46C114.074 193.76 114.224 194.155 114.224 194.645V194.69C114.224 195.42 113.954 196.01 113.414 196.46C112.884 196.91 112.159 197.135 111.239 197.135C110.289 197.135 109.544 196.915 109.004 196.475C108.474 196.025 108.189 195.395 108.149 194.585H109.364C109.424 195.085 109.594 195.465 109.874 195.725C110.164 195.975 110.619 196.1 111.239 196.1C112.359 196.1 112.919 195.655 112.919 194.765V194.72C112.919 194.28 112.784 193.96 112.514 193.76C112.254 193.56 111.849 193.46 111.299 193.46H110.114V192.47H111.089C111.609 192.47 111.979 192.375 112.199 192.185C112.429 191.995 112.544 191.685 112.544 191.255V191.21C112.544 190.44 112.094 190.055 111.194 190.055C110.324 190.055 109.804 190.465 109.634 191.285H108.434C108.524 190.495 108.824 189.92 109.334 189.56C109.854 189.2 110.499 189.02 111.269 189.02C112.009 189.02 112.624 189.21 113.114 189.59C113.604 189.96 113.849 190.48 113.849 191.15V191.195ZM118.335 197.135C117.565 197.135 116.935 196.945 116.445 196.565C115.965 196.175 115.725 195.595 115.725 194.825C115.725 194.395 115.83 194.02 116.04 193.7C116.26 193.37 116.56 193.115 116.94 192.935C117.32 192.745 117.735 192.61 118.185 192.53C118.635 192.44 119.125 192.395 119.655 192.395H120.78V191.825C120.78 191.195 120.65 190.745 120.39 190.475C120.13 190.195 119.7 190.055 119.1 190.055C118.02 190.055 117.42 190.525 117.3 191.465H116.055C116.135 190.625 116.46 190.01 117.03 189.62C117.61 189.22 118.32 189.02 119.16 189.02C121.07 189.02 122.025 189.955 122.025 191.825V197H120.78V196.01C120.18 196.76 119.365 197.135 118.335 197.135ZM118.455 196.145C119.135 196.145 119.69 195.98 120.12 195.65C120.56 195.31 120.78 194.845 120.78 194.255V193.28H119.7C117.88 193.28 116.97 193.795 116.97 194.825C116.97 195.705 117.465 196.145 118.455 196.145ZM127.605 187.715C127.065 187.715 126.605 187.53 126.225 187.16C125.845 186.78 125.645 186.305 125.625 185.735H126.705C126.765 186.475 127.065 186.845 127.605 186.845C128.195 186.845 128.525 186.475 128.595 185.735H129.645C129.605 186.305 129.39 186.78 129 187.16C128.62 187.53 128.155 187.715 127.605 187.715ZM124.38 197V189.155H125.625V195.2L129.63 189.155H130.875V197H129.63V190.955L125.625 197H124.38ZM138.342 193.505H134.487V197H133.242V189.155H134.487V192.455H138.342V189.155H139.587V197H138.342V193.505Z" fill="white"/>
<path d="M80.0762 193.074C80.0762 193.074 76.8381 198.544 72.0381 198.544C67.2381 198.544 64 193.074 64 193.074C64 193.074 67.2381 187.605 72.0381 187.605C76.8381 187.605 80.0762 193.074 80.0762 193.074ZM76 193.074C76 190.954 74.2095 189.242 72.0762 189.242C69.9048 189.242 68.1524 190.991 68.1524 193.074C68.1524 195.195 69.9429 196.907 72.0762 196.907C74.2095 196.907 76 195.158 76 193.074ZM72.0381 191.326C71.0857 191.326 70.2857 192.144 70.2857 193.074C70.2857 194.005 71.0857 194.786 72.0381 194.786C72.9905 194.786 73.8286 194.005 73.8286 193.074C73.8286 192.144 72.9905 191.326 72.0381 191.326Z" fill="white"/>
<rect x="38.5" y="133.5" width="149" height="25" rx="4.5" fill="white"/>
<path d="M98.505 146.995V151H97.26V143.155H98.505V146.815L101.76 143.155H103.215L99.855 146.845L103.5 151H101.985L98.505 146.995ZM108.061 150.1C108.841 150.1 109.461 149.83 109.921 149.29C110.391 148.75 110.626 148.035 110.626 147.145V147.04C110.626 146.13 110.391 145.405 109.921 144.865C109.461 144.325 108.841 144.055 108.061 144.055C107.271 144.055 106.646 144.325 106.186 144.865C105.726 145.405 105.496 146.125 105.496 147.025V147.145C105.496 148.055 105.721 148.775 106.171 149.305C106.631 149.835 107.261 150.1 108.061 150.1ZM108.046 151.135C106.936 151.135 106.016 150.76 105.286 150.01C104.566 149.25 104.206 148.295 104.206 147.145V147.025C104.206 145.855 104.566 144.895 105.286 144.145C106.016 143.395 106.941 143.02 108.061 143.02C109.181 143.02 110.101 143.395 110.821 144.145C111.551 144.885 111.916 145.84 111.916 147.01V147.13C111.916 148.31 111.551 149.275 110.821 150.025C110.091 150.765 109.166 151.135 108.046 151.135ZM118.854 147.505H114.999V151H113.754V143.155H114.999V146.455H118.854V143.155H120.099V151H118.854V147.505ZM128.121 144.205H125.586V151H124.341V144.205H121.806V143.155H128.121V144.205ZM132.845 151.135C131.725 151.135 130.81 150.77 130.1 150.04C129.4 149.31 129.05 148.35 129.05 147.16V147.04C129.05 145.86 129.39 144.895 130.07 144.145C130.76 143.395 131.645 143.02 132.725 143.02C133.725 143.02 134.56 143.345 135.23 143.995C135.91 144.635 136.25 145.61 136.25 146.92V147.325H130.34C130.4 149.175 131.24 150.1 132.86 150.1C134.09 150.1 134.785 149.645 134.945 148.735H136.19C136.05 149.515 135.685 150.11 135.095 150.52C134.505 150.93 133.755 151.135 132.845 151.135ZM134.975 146.32C134.865 144.81 134.115 144.055 132.725 144.055C132.095 144.055 131.575 144.255 131.165 144.655C130.755 145.055 130.495 145.61 130.385 146.32H134.975ZM143.171 147.505H139.316V151H138.071V143.155H139.316V146.455H143.171V143.155H144.416V151H143.171V147.505ZM152.438 144.205H149.903V151H148.658V144.205H146.123V143.155H152.438V144.205Z" fill="#87D0F0"/>
<path d="M38 137C38 134.791 39.7909 133 42 133H64V159H42C39.7909 159 38 157.209 38 155V137Z" fill="#87D0F0"/>
<path d="M60.1464 133H41.8536C39.7253 133 38 134.725 38 136.854V155.146C38 157.275 39.7253 159 41.8536 159H60.1464C62.2747 159 64 157.275 64 155.146V136.854C64 134.725 62.2747 133 60.1464 133Z" fill="#87D0F0"/>
<path d="M49.8587 149.32C52.196 149.32 54.0908 147.426 54.0908 145.088C54.0908 142.751 52.196 140.856 49.8587 140.856C47.5215 140.856 45.6267 142.751 45.6267 145.088C45.6267 147.426 47.5215 149.32 49.8587 149.32Z" stroke="white" stroke-width="1.46" stroke-miterlimit="10"/>
<path d="M53.2651 147.6L56.3732 150.708" stroke="white" stroke-width="1.46" stroke-miterlimit="10"/>
<rect x="38.5" y="133.5" width="149" height="25" rx="4.5" stroke="#87D0F0"/>
<rect x="38.5" y="361.5" width="149" height="25" rx="4.5" fill="white"/>
<path d="M94.0863 378.1C94.8663 378.1 95.4863 377.83 95.9463 377.29C96.4163 376.75 96.6513 376.035 96.6513 375.145V375.04C96.6513 374.13 96.4163 373.405 95.9463 372.865C95.4863 372.325 94.8663 372.055 94.0863 372.055C93.2963 372.055 92.6713 372.325 92.2113 372.865C91.7513 373.405 91.5213 374.125 91.5213 375.025V375.145C91.5213 376.055 91.7463 376.775 92.1963 377.305C92.6563 377.835 93.2863 378.1 94.0863 378.1ZM94.0713 379.135C92.9613 379.135 92.0413 378.76 91.3113 378.01C90.5913 377.25 90.2313 376.295 90.2313 375.145V375.025C90.2313 373.855 90.5913 372.895 91.3113 372.145C92.0413 371.395 92.9663 371.02 94.0863 371.02C95.2063 371.02 96.1263 371.395 96.8463 372.145C97.5763 372.885 97.9413 373.84 97.9413 375.01V375.13C97.9413 376.31 97.5763 377.275 96.8463 378.025C96.1163 378.765 95.1913 379.135 94.0713 379.135ZM103.154 379.135C101.974 379.135 101.039 378.755 100.349 377.995C99.659 377.235 99.314 376.08 99.314 374.53V374.05C99.314 373.31 99.344 372.655 99.404 372.085C99.464 371.505 99.589 370.925 99.779 370.345C99.969 369.755 100.219 369.265 100.529 368.875C100.839 368.485 101.259 368.16 101.789 367.9C102.329 367.64 102.964 367.49 103.694 367.45L103.994 367.435C105.094 367.375 105.839 367.265 106.229 367.105L106.394 368.155C105.884 368.375 105.089 368.51 104.009 368.56L103.784 368.575C102.574 368.635 101.709 369.03 101.189 369.76C100.679 370.48 100.379 371.6 100.289 373.12H100.349C100.619 372.57 101.019 372.135 101.549 371.815C102.089 371.485 102.714 371.32 103.424 371.32C104.514 371.32 105.384 371.675 106.034 372.385C106.694 373.085 107.024 373.995 107.024 375.115V375.175C107.024 376.385 106.659 377.35 105.929 378.07C105.209 378.78 104.284 379.135 103.154 379.135ZM101.279 377.335C101.739 377.845 102.369 378.1 103.169 378.1C103.969 378.1 104.594 377.85 105.044 377.35C105.504 376.84 105.734 376.12 105.734 375.19V375.16C105.734 374.29 105.524 373.605 105.104 373.105C104.694 372.605 104.094 372.355 103.304 372.355C102.474 372.355 101.814 372.615 101.324 373.135C100.844 373.655 100.604 374.365 100.604 375.265V375.295C100.604 376.145 100.829 376.825 101.279 377.335ZM111.024 378.19L107.949 371.155H109.284L111.684 376.78L113.859 371.155H115.134L110.799 381.73H109.539L111.024 378.19ZM121.258 379V375.34C120.718 375.92 119.968 376.21 119.008 376.21C118.238 376.21 117.608 375.965 117.118 375.475C116.628 374.975 116.383 374.215 116.383 373.195V371.155H117.628V373.135C117.628 374.465 118.198 375.13 119.338 375.13C120.188 375.13 120.828 374.84 121.258 374.26V371.155H122.503V379H121.258ZM128.318 379.135C127.198 379.135 126.283 378.77 125.573 378.04C124.873 377.31 124.523 376.35 124.523 375.16V375.04C124.523 373.86 124.863 372.895 125.543 372.145C126.233 371.395 127.118 371.02 128.198 371.02C129.198 371.02 130.033 371.345 130.703 371.995C131.383 372.635 131.723 373.61 131.723 374.92V375.325H125.813C125.873 377.175 126.713 378.1 128.333 378.1C129.563 378.1 130.258 377.645 130.418 376.735H131.663C131.523 377.515 131.158 378.11 130.568 378.52C129.978 378.93 129.228 379.135 128.318 379.135ZM130.448 374.32C130.338 372.81 129.588 372.055 128.198 372.055C127.568 372.055 127.048 372.255 126.638 372.655C126.228 373.055 125.968 373.61 125.858 374.32H130.448ZM138.644 375.505H134.789V379H133.544V371.155H134.789V374.455H138.644V371.155H139.889V379H138.644V375.505ZM142.406 379V371.155H143.651V377.2L147.656 371.155H148.901V379H147.656V372.955L143.651 379H142.406ZM154.568 379.135C153.448 379.135 152.533 378.77 151.823 378.04C151.123 377.31 150.773 376.35 150.773 375.16V375.04C150.773 373.86 151.113 372.895 151.793 372.145C152.483 371.395 153.368 371.02 154.448 371.02C155.448 371.02 156.283 371.345 156.953 371.995C157.633 372.635 157.973 373.61 157.973 374.92V375.325H152.063C152.123 377.175 152.963 378.1 154.583 378.1C155.813 378.1 156.508 377.645 156.668 376.735H157.913C157.773 377.515 157.408 378.11 156.818 378.52C156.228 378.93 155.478 379.135 154.568 379.135ZM156.698 374.32C156.588 372.81 155.838 372.055 154.448 372.055C153.818 372.055 153.298 372.255 152.888 372.655C152.478 373.055 152.218 373.61 152.108 374.32H156.698Z" fill="#87D0F0"/>
<path d="M38 365C38 362.791 39.7909 361 42 361H64V387H42C39.7909 387 38 385.209 38 383V365Z" fill="#87D0F0"/>
<path d="M60.1464 361H41.8536C39.7253 361 38 362.725 38 364.854V383.146C38 385.275 39.7253 387 41.8536 387H60.1464C62.2747 387 64 385.275 64 383.146V364.854C64 362.725 62.2747 361 60.1464 361Z" fill="#87D0F0"/>
<path d="M52.46 374.98L54.79 378.06L53.01 379.43L50.57 376.28L48.39 379.42L46.52 378.06L48.7 374.91L45 373.91L45.63 371.8L49.4 372.8V369H51.72V372.88L55.52 371.62L56.3 373.62L52.46 374.98Z" fill="white"/>
<rect x="38.5" y="361.5" width="149" height="25" rx="4.5" stroke="#87D0F0"/>
<path d="M236.315 151.135C235.545 151.135 234.915 150.945 234.425 150.565C233.945 150.175 233.705 149.595 233.705 148.825C233.705 148.395 233.81 148.02 234.02 147.7C234.24 147.37 234.54 147.115 234.92 146.935C235.3 146.745 235.715 146.61 236.165 146.53C236.615 146.44 237.105 146.395 237.635 146.395H238.76V145.825C238.76 145.195 238.63 144.745 238.37 144.475C238.11 144.195 237.68 144.055 237.08 144.055C236 144.055 235.4 144.525 235.28 145.465H234.035C234.115 144.625 234.44 144.01 235.01 143.62C235.59 143.22 236.3 143.02 237.14 143.02C239.05 143.02 240.005 143.955 240.005 145.825V151H238.76V150.01C238.16 150.76 237.345 151.135 236.315 151.135ZM236.435 150.145C237.115 150.145 237.67 149.98 238.1 149.65C238.54 149.31 238.76 148.845 238.76 148.255V147.28H237.68C235.86 147.28 234.95 147.795 234.95 148.825C234.95 149.705 235.445 150.145 236.435 150.145ZM247.461 147.505H243.606V151H242.361V143.155H243.606V146.455H247.461V143.155H248.706V151H247.461V147.505ZM253.278 151.135C252.508 151.135 251.878 150.945 251.388 150.565C250.908 150.175 250.668 149.595 250.668 148.825C250.668 148.395 250.773 148.02 250.983 147.7C251.203 147.37 251.503 147.115 251.883 146.935C252.263 146.745 252.678 146.61 253.128 146.53C253.578 146.44 254.068 146.395 254.598 146.395H255.723V145.825C255.723 145.195 255.593 144.745 255.333 144.475C255.073 144.195 254.643 144.055 254.043 144.055C252.963 144.055 252.363 144.525 252.243 145.465H250.998C251.078 144.625 251.403 144.01 251.973 143.62C252.553 143.22 253.263 143.02 254.103 143.02C256.013 143.02 256.968 143.955 256.968 145.825V151H255.723V150.01C255.123 150.76 254.308 151.135 253.278 151.135ZM253.398 150.145C254.078 150.145 254.633 149.98 255.063 149.65C255.503 149.31 255.723 148.845 255.723 148.255V147.28H254.643C252.823 147.28 251.913 147.795 251.913 148.825C251.913 149.705 252.408 150.145 253.398 150.145ZM260.823 147.97C260.733 149.05 260.543 149.84 260.253 150.34C259.963 150.83 259.508 151.075 258.888 151.075C258.758 151.075 258.623 151.065 258.483 151.045L258.363 151V149.815L258.468 149.845C258.568 149.865 258.673 149.875 258.783 149.875C258.943 149.875 259.073 149.83 259.173 149.74C259.283 149.64 259.368 149.485 259.428 149.275C259.498 149.065 259.548 148.87 259.578 148.69C259.608 148.5 259.643 148.235 259.683 147.895C259.723 147.535 259.783 146.515 259.863 144.835L259.908 143.155H265.083V151H263.838V144.205H261.018C260.928 146.365 260.863 147.62 260.823 147.97ZM267.6 151V143.155H268.845V149.2L272.85 143.155H274.095V151H272.85V144.955L268.845 151H267.6ZM281.967 144.205H279.432V151H278.187V144.205H275.652V143.155H281.967V144.205ZM283.684 151V143.155H284.929V149.2L288.934 143.155H290.179V151H288.934V144.955L284.929 151H283.684ZM293.791 146.995V151H292.546V143.155H293.791V146.815L297.046 143.155H298.501L295.141 146.845L298.786 151H297.271L293.791 146.995ZM302.262 151.135C301.492 151.135 300.862 150.945 300.372 150.565C299.892 150.175 299.652 149.595 299.652 148.825C299.652 148.395 299.757 148.02 299.967 147.7C300.187 147.37 300.487 147.115 300.867 146.935C301.247 146.745 301.662 146.61 302.112 146.53C302.562 146.44 303.052 146.395 303.582 146.395H304.707V145.825C304.707 145.195 304.577 144.745 304.317 144.475C304.057 144.195 303.627 144.055 303.027 144.055C301.947 144.055 301.347 144.525 301.227 145.465H299.982C300.062 144.625 300.387 144.01 300.957 143.62C301.537 143.22 302.247 143.02 303.087 143.02C304.997 143.02 305.952 143.955 305.952 145.825V151H304.707V150.01C304.107 150.76 303.292 151.135 302.262 151.135ZM302.382 150.145C303.062 150.145 303.617 149.98 304.047 149.65C304.487 149.31 304.707 148.845 304.707 148.255V147.28H303.627C301.807 147.28 300.897 147.795 300.897 148.825C300.897 149.705 301.392 150.145 302.382 150.145Z" fill="#87D0F0"/>
<rect x="208.5" y="133.5" width="124" height="25" rx="4.5" stroke="#87D0F0"/>
<path d="M172.513 87H159.487C155.904 87 153 89.9043 153 93.4868V106.513C153 110.096 155.904 113 159.487 113H172.513C176.096 113 179 110.096 179 106.513V93.4868C179 89.9043 176.096 87 172.513 87Z" fill="white" stroke="#7ADAA2" stroke-width="1.18" stroke-miterlimit="10"/>
<path d="M160.829 96.211L159.237 97.8294V93.2373H163.829L162.237 94.8294L164.763 97.3426L163.303 98.7636L160.829 96.211ZM164.776 102.698L162.237 105.172L163.829 106.764H159.237V102.172L160.829 103.75L163.303 101.237L164.776 102.698ZM167.25 97.3426L169.776 94.8294L168.171 93.2373H172.763V97.8294L171.171 96.2505L168.658 98.7636L167.25 97.3426ZM172.776 102.172V106.764H168.171L169.763 105.172L167.237 102.698L168.658 101.237L171.171 103.75L172.776 102.172Z" fill="#7ADAA2"/>
<path d="M202.115 239.275H205.16C206.26 239.275 207.16 239.535 207.86 240.055C208.56 240.565 208.91 241.35 208.91 242.41V242.47C208.91 243.55 208.56 244.35 207.86 244.87C207.17 245.38 206.27 245.635 205.16 245.635H203.42V250H202.115V239.275ZM205.25 244.6C206.02 244.6 206.605 244.42 207.005 244.06C207.405 243.69 207.605 243.16 207.605 242.47V242.41C207.605 241.02 206.82 240.325 205.25 240.325H203.42V244.6H205.25ZM212.632 250.135C211.862 250.135 211.232 249.945 210.742 249.565C210.262 249.175 210.022 248.595 210.022 247.825C210.022 247.395 210.127 247.02 210.337 246.7C210.557 246.37 210.857 246.115 211.237 245.935C211.617 245.745 212.032 245.61 212.482 245.53C212.932 245.44 213.422 245.395 213.952 245.395H215.077V244.825C215.077 244.195 214.947 243.745 214.687 243.475C214.427 243.195 213.997 243.055 213.397 243.055C212.317 243.055 211.717 243.525 211.597 244.465H210.352C210.432 243.625 210.757 243.01 211.327 242.62C211.907 242.22 212.617 242.02 213.457 242.02C215.367 242.02 216.322 242.955 216.322 244.825V250H215.077V249.01C214.477 249.76 213.662 250.135 212.632 250.135ZM212.752 249.145C213.432 249.145 213.987 248.98 214.417 248.65C214.857 248.31 215.077 247.845 215.077 247.255V246.28H213.997C212.177 246.28 211.267 246.795 211.267 247.825C211.267 248.705 211.762 249.145 212.752 249.145ZM222.053 250.135C220.873 250.135 219.938 249.755 219.248 248.995C218.558 248.235 218.213 247.08 218.213 245.53V245.05C218.213 244.31 218.243 243.655 218.303 243.085C218.363 242.505 218.488 241.925 218.678 241.345C218.868 240.755 219.118 240.265 219.428 239.875C219.738 239.485 220.158 239.16 220.688 238.9C221.228 238.64 221.863 238.49 222.593 238.45L222.893 238.435C223.993 238.375 224.738 238.265 225.128 238.105L225.293 239.155C224.783 239.375 223.988 239.51 222.908 239.56L222.683 239.575C221.473 239.635 220.608 240.03 220.088 240.76C219.578 241.48 219.278 242.6 219.188 244.12H219.248C219.518 243.57 219.918 243.135 220.448 242.815C220.988 242.485 221.613 242.32 222.323 242.32C223.413 242.32 224.283 242.675 224.933 243.385C225.593 244.085 225.923 244.995 225.923 246.115V246.175C225.923 247.385 225.558 248.35 224.828 249.07C224.108 249.78 223.183 250.135 222.053 250.135ZM220.178 248.335C220.638 248.845 221.268 249.1 222.068 249.1C222.868 249.1 223.493 248.85 223.943 248.35C224.403 247.84 224.633 247.12 224.633 246.19V246.16C224.633 245.29 224.423 244.605 224.003 244.105C223.593 243.605 222.993 243.355 222.203 243.355C221.373 243.355 220.713 243.615 220.223 244.135C219.743 244.655 219.503 245.365 219.503 246.265V246.295C219.503 247.145 219.728 247.825 220.178 248.335ZM231.223 249.1C232.003 249.1 232.623 248.83 233.083 248.29C233.553 247.75 233.788 247.035 233.788 246.145V246.04C233.788 245.13 233.553 244.405 233.083 243.865C232.623 243.325 232.003 243.055 231.223 243.055C230.433 243.055 229.808 243.325 229.348 243.865C228.888 244.405 228.658 245.125 228.658 246.025V246.145C228.658 247.055 228.883 247.775 229.333 248.305C229.793 248.835 230.423 249.1 231.223 249.1ZM231.208 250.135C230.098 250.135 229.178 249.76 228.448 249.01C227.728 248.25 227.368 247.295 227.368 246.145V246.025C227.368 244.855 227.728 243.895 228.448 243.145C229.178 242.395 230.103 242.02 231.223 242.02C232.343 242.02 233.263 242.395 233.983 243.145C234.713 243.885 235.078 244.84 235.078 246.01V246.13C235.078 247.31 234.713 248.275 233.983 249.025C233.253 249.765 232.328 250.135 231.208 250.135ZM242.127 243.205H239.592V250H238.347V243.205H235.812V242.155H242.127V243.205ZM245.826 250.135C245.056 250.135 244.426 249.945 243.936 249.565C243.456 249.175 243.216 248.595 243.216 247.825C243.216 247.395 243.321 247.02 243.531 246.7C243.751 246.37 244.051 246.115 244.431 245.935C244.811 245.745 245.226 245.61 245.676 245.53C246.126 245.44 246.616 245.395 247.146 245.395H248.271V244.825C248.271 244.195 248.141 243.745 247.881 243.475C247.621 243.195 247.191 243.055 246.591 243.055C245.511 243.055 244.911 243.525 244.791 244.465H243.546C243.626 243.625 243.951 243.01 244.521 242.62C245.101 242.22 245.811 242.02 246.651 242.02C248.561 242.02 249.516 242.955 249.516 244.825V250H248.271V249.01C247.671 249.76 246.856 250.135 245.826 250.135ZM245.946 249.145C246.626 249.145 247.181 248.98 247.611 248.65C248.051 248.31 248.271 247.845 248.271 247.255V246.28H247.191C245.371 246.28 244.461 246.795 244.461 247.825C244.461 248.705 244.956 249.145 245.946 249.145ZM259.186 250.135C258.066 250.135 257.146 249.775 256.426 249.055C255.706 248.325 255.346 247.36 255.346 246.16V246.04C255.346 244.86 255.711 243.895 256.441 243.145C257.181 242.395 258.086 242.02 259.156 242.02C260.056 242.02 260.821 242.245 261.451 242.695C262.081 243.135 262.451 243.825 262.561 244.765H261.331C261.151 243.625 260.426 243.055 259.156 243.055C258.426 243.055 257.821 243.33 257.341 243.88C256.871 244.42 256.636 245.14 256.636 246.04V246.16C256.636 247.1 256.866 247.825 257.326 248.335C257.796 248.845 258.421 249.1 259.201 249.1C259.791 249.1 260.296 248.935 260.716 248.605C261.146 248.265 261.391 247.79 261.451 247.18H262.606C262.526 248.04 262.166 248.75 261.526 249.31C260.896 249.86 260.116 250.135 259.186 250.135ZM273.315 243.205H269.61V250H268.365V242.155H274.56V250H273.315V243.205ZM277.171 242.155H278.416V243.475C278.646 243.075 279.006 242.735 279.496 242.455C279.986 242.165 280.511 242.02 281.071 242.02C282.121 242.02 282.976 242.375 283.636 243.085C284.306 243.795 284.641 244.755 284.641 245.965V246.085C284.641 247.295 284.311 248.275 283.651 249.025C283.001 249.765 282.141 250.135 281.071 250.135C279.871 250.135 278.986 249.66 278.416 248.71V252.73H277.171V242.155ZM280.951 249.1C281.731 249.1 282.326 248.85 282.736 248.35C283.146 247.84 283.351 247.105 283.351 246.145V246.025C283.351 245.075 283.121 244.345 282.661 243.835C282.211 243.315 281.636 243.055 280.936 243.055C280.176 243.055 279.556 243.31 279.076 243.82C278.606 244.32 278.371 245.055 278.371 246.025V246.145C278.371 247.115 278.601 247.85 279.061 248.35C279.531 248.85 280.161 249.1 280.951 249.1ZM289.786 250.135C288.666 250.135 287.751 249.77 287.041 249.04C286.341 248.31 285.991 247.35 285.991 246.16V246.04C285.991 244.86 286.331 243.895 287.011 243.145C287.701 242.395 288.586 242.02 289.666 242.02C290.666 242.02 291.501 242.345 292.171 242.995C292.851 243.635 293.191 244.61 293.191 245.92V246.325H287.281C287.341 248.175 288.181 249.1 289.801 249.1C291.031 249.1 291.726 248.645 291.886 247.735H293.131C292.991 248.515 292.626 249.11 292.036 249.52C291.446 249.93 290.696 250.135 289.786 250.135ZM291.916 245.32C291.806 243.81 291.056 243.055 289.666 243.055C289.036 243.055 288.516 243.255 288.106 243.655C287.696 244.055 287.436 244.61 287.326 245.32H291.916ZM300.066 244.195C300.066 244.585 299.951 244.945 299.721 245.275C299.501 245.595 299.186 245.795 298.776 245.875C299.286 245.965 299.691 246.16 299.991 246.46C300.291 246.76 300.441 247.155 300.441 247.645V247.69C300.441 248.42 300.171 249.01 299.631 249.46C299.101 249.91 298.376 250.135 297.456 250.135C296.506 250.135 295.761 249.915 295.221 249.475C294.691 249.025 294.406 248.395 294.366 247.585H295.581C295.641 248.085 295.811 248.465 296.091 248.725C296.381 248.975 296.836 249.1 297.456 249.1C298.576 249.1 299.136 248.655 299.136 247.765V247.72C299.136 247.28 299.001 246.96 298.731 246.76C298.471 246.56 298.066 246.46 297.516 246.46H296.331V245.47H297.306C297.826 245.47 298.196 245.375 298.416 245.185C298.646 244.995 298.761 244.685 298.761 244.255V244.21C298.761 243.44 298.311 243.055 297.411 243.055C296.541 243.055 296.021 243.465 295.851 244.285H294.651C294.741 243.495 295.041 242.92 295.551 242.56C296.071 242.2 296.716 242.02 297.486 242.02C298.226 242.02 298.841 242.21 299.331 242.59C299.821 242.96 300.066 243.48 300.066 244.15V244.195ZM305.723 250.135C304.603 250.135 303.688 249.77 302.978 249.04C302.278 248.31 301.928 247.35 301.928 246.16V246.04C301.928 244.86 302.268 243.895 302.948 243.145C303.638 242.395 304.523 242.02 305.603 242.02C306.603 242.02 307.438 242.345 308.108 242.995C308.788 243.635 309.128 244.61 309.128 245.92V246.325H303.218C303.278 248.175 304.118 249.1 305.738 249.1C306.968 249.1 307.663 248.645 307.823 247.735H309.068C308.928 248.515 308.563 249.11 307.973 249.52C307.383 249.93 306.633 250.135 305.723 250.135ZM307.853 245.32C307.743 243.81 306.993 243.055 305.603 243.055C304.973 243.055 304.453 243.255 304.043 243.655C303.633 244.055 303.373 244.61 303.263 245.32H307.853ZM316.048 246.505H312.193V250H310.948V242.155H312.193V245.455H316.048V242.155H317.293V250H316.048V246.505ZM325.316 243.205H322.781V250H321.536V243.205H319.001V242.155H325.316V243.205ZM329.014 250.135C328.244 250.135 327.614 249.945 327.124 249.565C326.644 249.175 326.404 248.595 326.404 247.825C326.404 247.395 326.509 247.02 326.719 246.7C326.939 246.37 327.239 246.115 327.619 245.935C327.999 245.745 328.414 245.61 328.864 245.53C329.314 245.44 329.804 245.395 330.334 245.395H331.459V244.825C331.459 244.195 331.329 243.745 331.069 243.475C330.809 243.195 330.379 243.055 329.779 243.055C328.699 243.055 328.099 243.525 327.979 244.465H326.734C326.814 243.625 327.139 243.01 327.709 242.62C328.289 242.22 328.999 242.02 329.839 242.02C331.749 242.02 332.704 242.955 332.704 244.825V250H331.459V249.01C330.859 249.76 330.044 250.135 329.014 250.135ZM329.134 249.145C329.814 249.145 330.369 248.98 330.799 248.65C331.239 248.31 331.459 247.845 331.459 247.255V246.28H330.379C328.559 246.28 327.649 246.795 327.649 247.825C327.649 248.705 328.144 249.145 329.134 249.145ZM341.45 251.905L341.36 250H335.06V242.155H336.305V248.95H340.01V242.155H341.255V248.95H342.455V251.905H341.45ZM344.01 250V242.155H345.255V248.2L349.26 242.155H350.505V250H349.26V243.955L345.255 250H344.01ZM356.172 250.135C355.052 250.135 354.137 249.77 353.427 249.04C352.727 248.31 352.377 247.35 352.377 246.16V246.04C352.377 244.86 352.717 243.895 353.397 243.145C354.087 242.395 354.972 242.02 356.052 242.02C357.052 242.02 357.887 242.345 358.557 242.995C359.237 243.635 359.577 244.61 359.577 245.92V246.325H353.667C353.727 248.175 354.567 249.1 356.187 249.1C357.417 249.1 358.112 248.645 358.272 247.735H359.517C359.377 248.515 359.012 249.11 358.422 249.52C357.832 249.93 357.082 250.135 356.172 250.135ZM358.302 245.32C358.192 243.81 357.442 243.055 356.052 243.055C355.422 243.055 354.902 243.255 354.492 243.655C354.082 244.055 353.822 244.61 353.712 245.32H358.302ZM364.623 240.715C364.083 240.715 363.623 240.53 363.243 240.16C362.863 239.78 362.663 239.305 362.643 238.735H363.723C363.783 239.475 364.083 239.845 364.623 239.845C365.213 239.845 365.543 239.475 365.613 238.735H366.663C366.623 239.305 366.408 239.78 366.018 240.16C365.638 240.53 365.173 240.715 364.623 240.715ZM361.398 250V242.155H362.643V248.2L366.648 242.155H367.893V250H366.648V243.955L362.643 250H361.398Z" fill="#344756"/>
<path d="M259.826 428.235C259.736 429.485 259.501 430.375 259.121 430.905H264.341V422.34H260.141C260.121 422.62 260.096 423.15 260.066 423.93C260.036 424.7 260.001 425.46 259.961 426.21C259.921 426.95 259.876 427.625 259.826 428.235ZM257.891 433.95H256.811V430.905H257.486C257.846 430.795 258.106 430.52 258.266 430.08C258.436 429.64 258.566 428.99 258.656 428.13C258.776 426.64 258.861 425.125 258.911 423.585C258.951 422.535 258.976 421.765 258.986 421.275H265.616V430.905H266.816V433.95H265.736L265.661 432H257.966L257.891 433.95ZM271.74 431.1C272.52 431.1 273.14 430.83 273.6 430.29C274.07 429.75 274.305 429.035 274.305 428.145V428.04C274.305 427.13 274.07 426.405 273.6 425.865C273.14 425.325 272.52 425.055 271.74 425.055C270.95 425.055 270.325 425.325 269.865 425.865C269.405 426.405 269.175 427.125 269.175 428.025V428.145C269.175 429.055 269.4 429.775 269.85 430.305C270.31 430.835 270.94 431.1 271.74 431.1ZM271.725 432.135C270.615 432.135 269.695 431.76 268.965 431.01C268.245 430.25 267.885 429.295 267.885 428.145V428.025C267.885 426.855 268.245 425.895 268.965 425.145C269.695 424.395 270.62 424.02 271.74 424.02C272.86 424.02 273.78 424.395 274.5 425.145C275.23 425.885 275.595 426.84 275.595 428.01V428.13C275.595 429.31 275.23 430.275 274.5 431.025C273.77 431.765 272.845 432.135 271.725 432.135ZM282.383 425.205H278.678V432H277.433V424.155H283.628V432H282.383V425.205ZM289.509 431.1C290.289 431.1 290.909 430.83 291.369 430.29C291.839 429.75 292.074 429.035 292.074 428.145V428.04C292.074 427.13 291.839 426.405 291.369 425.865C290.909 425.325 290.289 425.055 289.509 425.055C288.719 425.055 288.094 425.325 287.634 425.865C287.174 426.405 286.944 427.125 286.944 428.025V428.145C286.944 429.055 287.169 429.775 287.619 430.305C288.079 430.835 288.709 431.1 289.509 431.1ZM289.494 432.135C288.384 432.135 287.464 431.76 286.734 431.01C286.014 430.25 285.654 429.295 285.654 428.145V428.025C285.654 426.855 286.014 425.895 286.734 425.145C287.464 424.395 288.389 424.02 289.509 424.02C290.629 424.02 291.549 424.395 292.269 425.145C292.999 425.885 293.364 426.84 293.364 428.01V428.13C293.364 429.31 292.999 430.275 292.269 431.025C291.539 431.765 290.614 432.135 289.494 432.135ZM296.628 428.97C296.538 430.05 296.348 430.84 296.058 431.34C295.768 431.83 295.313 432.075 294.693 432.075C294.563 432.075 294.428 432.065 294.288 432.045L294.168 432V430.815L294.273 430.845C294.373 430.865 294.478 430.875 294.588 430.875C294.748 430.875 294.878 430.83 294.978 430.74C295.088 430.64 295.173 430.485 295.233 430.275C295.303 430.065 295.353 429.87 295.383 429.69C295.413 429.5 295.448 429.235 295.488 428.895C295.528 428.535 295.588 427.515 295.668 425.835L295.713 424.155H300.888V432H299.643V425.205H296.823C296.733 427.365 296.668 428.62 296.628 428.97ZM308.505 428.505H304.65V432H303.405V424.155H304.65V427.455H308.505V424.155H309.75V432H308.505V428.505ZM312.267 432V424.155H313.512V430.2L317.517 424.155H318.762V432H317.517V425.955L313.512 432H312.267ZM326.634 425.205H324.099V432H322.854V425.205H320.319V424.155H326.634V425.205ZM331.358 432.135C330.238 432.135 329.323 431.77 328.613 431.04C327.913 430.31 327.563 429.35 327.563 428.16V428.04C327.563 426.86 327.903 425.895 328.583 425.145C329.273 424.395 330.158 424.02 331.238 424.02C332.238 424.02 333.073 424.345 333.743 424.995C334.423 425.635 334.763 426.61 334.763 427.92V428.325H328.853C328.913 430.175 329.753 431.1 331.373 431.1C332.603 431.1 333.298 430.645 333.458 429.735H334.703C334.563 430.515 334.198 431.11 333.608 431.52C333.018 431.93 332.268 432.135 331.358 432.135ZM333.488 427.32C333.378 425.81 332.628 425.055 331.238 425.055C330.608 425.055 330.088 425.255 329.678 425.655C329.268 426.055 329.008 426.61 328.898 427.32H333.488ZM338.156 428.97C338.066 430.05 337.876 430.84 337.586 431.34C337.296 431.83 336.841 432.075 336.221 432.075C336.091 432.075 335.956 432.065 335.816 432.045L335.696 432V430.815L335.801 430.845C335.901 430.865 336.006 430.875 336.116 430.875C336.276 430.875 336.406 430.83 336.506 430.74C336.616 430.64 336.701 430.485 336.761 430.275C336.831 430.065 336.881 429.87 336.911 429.69C336.941 429.5 336.976 429.235 337.016 428.895C337.056 428.535 337.116 427.515 337.196 425.835L337.241 424.155H342.416V432H341.171V425.205H338.351C338.261 427.365 338.196 428.62 338.156 428.97ZM344.933 424.155H346.178V426.9H347.573C348.453 426.9 349.173 427.115 349.733 427.545C350.293 427.975 350.573 428.615 350.573 429.465V429.51C350.573 430.37 350.293 431 349.733 431.4C349.183 431.8 348.463 432 347.573 432H344.933V424.155ZM347.648 431.025C348.248 431.025 348.678 430.9 348.938 430.65C349.198 430.39 349.328 430.01 349.328 429.51V429.465C349.328 428.925 349.193 428.53 348.923 428.28C348.663 428.02 348.238 427.89 347.648 427.89H346.178V431.025H347.648ZM357.445 428.505H353.59V432H352.345V424.155H353.59V427.455H357.445V424.155H358.69V432H357.445V428.505ZM364.567 431.1C365.347 431.1 365.967 430.83 366.427 430.29C366.897 429.75 367.132 429.035 367.132 428.145V428.04C367.132 427.13 366.897 426.405 366.427 425.865C365.967 425.325 365.347 425.055 364.567 425.055C363.777 425.055 363.152 425.325 362.692 425.865C362.232 426.405 362.002 427.125 362.002 428.025V428.145C362.002 429.055 362.227 429.775 362.677 430.305C363.137 430.835 363.767 431.1 364.567 431.1ZM364.552 432.135C363.442 432.135 362.522 431.76 361.792 431.01C361.072 430.25 360.712 429.295 360.712 428.145V428.025C360.712 426.855 361.072 425.895 361.792 425.145C362.522 424.395 363.447 424.02 364.567 424.02C365.687 424.02 366.607 424.395 367.327 425.145C368.057 425.885 368.422 426.84 368.422 428.01V428.13C368.422 429.31 368.057 430.275 367.327 431.025C366.597 431.765 365.672 432.135 364.552 432.135Z" fill="#344756"/>
<path d="M189 204.372C195.833 204.372 201.372 198.833 201.372 192C201.372 185.167 195.833 179.628 189 179.628C182.167 179.628 176.628 185.167 176.628 192C176.628 198.833 182.167 204.372 189 204.372Z" fill="white" stroke="#CEA4F9" stroke-width="1.18" stroke-miterlimit="10"/>
<path d="M183.83 193.574C184.611 193.574 185.245 192.941 185.245 192.16C185.245 191.378 184.611 190.745 183.83 190.745C183.049 190.745 182.415 191.378 182.415 192.16C182.415 192.941 183.049 193.574 183.83 193.574Z" fill="#CEA4F9"/>
<path d="M189.021 193.574C189.803 193.574 190.436 192.941 190.436 192.16C190.436 191.378 189.803 190.745 189.021 190.745C188.24 190.745 187.606 191.378 187.606 192.16C187.606 192.941 188.24 193.574 189.021 193.574Z" fill="#CEA4F9"/>
<path d="M194.213 193.574C194.994 193.574 195.628 192.941 195.628 192.16C195.628 191.378 194.994 190.745 194.213 190.745C193.431 190.745 192.798 191.378 192.798 192.16C192.798 192.941 193.431 193.574 194.213 193.574Z" fill="#CEA4F9"/>
<rect x="38.5" y="315.5" width="266" height="25" rx="4.5" fill="#CEA4F9"/>
<path d="M68.205 333.135C66.965 333.135 66.01 332.79 65.34 332.1C64.68 331.4 64.35 330.395 64.35 329.085V322.275H65.655V328.935C65.655 330.045 65.855 330.845 66.255 331.335C66.665 331.815 67.325 332.055 68.235 332.055C69.155 332.055 69.84 331.815 70.29 331.335C70.74 330.855 70.965 329.99 70.965 328.74V322.275H72.27V328.92C72.27 330.26 71.93 331.3 71.25 332.04C70.57 332.77 69.555 333.135 68.205 333.135ZM77.6321 327.495L74.3321 322.275H75.7721L78.4421 326.49L81.0971 322.275H82.4321L79.1021 327.495L82.5971 333H81.1271L78.2621 328.485L75.3971 333H74.0921L77.6321 327.495ZM94.0961 326.205H91.5611V333H90.3161V326.205H87.7811V325.155H94.0961V326.205ZM98.8198 333.135C97.6998 333.135 96.7848 332.77 96.0748 332.04C95.3748 331.31 95.0248 330.35 95.0248 329.16V329.04C95.0248 327.86 95.3648 326.895 96.0448 326.145C96.7348 325.395 97.6198 325.02 98.6998 325.02C99.6998 325.02 100.535 325.345 101.205 325.995C101.885 326.635 102.225 327.61 102.225 328.92V329.325H96.3148C96.3748 331.175 97.2148 332.1 98.8348 332.1C100.065 332.1 100.76 331.645 100.92 330.735H102.165C102.025 331.515 101.66 332.11 101.07 332.52C100.48 332.93 99.7298 333.135 98.8198 333.135ZM100.95 328.32C100.84 326.81 100.09 326.055 98.6998 326.055C98.0698 326.055 97.5498 326.255 97.1398 326.655C96.7298 327.055 96.4698 327.61 96.3598 328.32H100.95ZM107.39 333.135C106.27 333.135 105.35 332.775 104.63 332.055C103.91 331.325 103.55 330.36 103.55 329.16V329.04C103.55 327.86 103.915 326.895 104.645 326.145C105.385 325.395 106.29 325.02 107.36 325.02C108.26 325.02 109.025 325.245 109.655 325.695C110.285 326.135 110.655 326.825 110.765 327.765H109.535C109.355 326.625 108.63 326.055 107.36 326.055C106.63 326.055 106.025 326.33 105.545 326.88C105.075 327.42 104.84 328.14 104.84 329.04V329.16C104.84 330.1 105.07 330.825 105.53 331.335C106 331.845 106.625 332.1 107.405 332.1C107.995 332.1 108.5 331.935 108.92 331.605C109.35 331.265 109.595 330.79 109.655 330.18H110.81C110.73 331.04 110.37 331.75 109.73 332.31C109.1 332.86 108.32 333.135 107.39 333.135ZM118.105 326.205H115.57V333H114.325V326.205H111.79V325.155H118.105V326.205ZM123.791 333V325.155H125.036V331.2L129.041 325.155H130.286V333H129.041V326.955L125.036 333H123.791ZM134.184 329.97C134.074 330.89 133.904 331.55 133.674 331.95H137.349V326.175H134.469C134.419 327.395 134.324 328.66 134.184 329.97ZM132.624 334.905H131.619V331.95H132.174C132.454 331.88 132.649 331.68 132.759 331.35C132.869 331.01 132.964 330.525 133.044 329.895C133.134 329.085 133.219 328.065 133.299 326.835C133.339 326.285 133.369 325.725 133.389 325.155H138.564V331.95H139.764V334.905H138.759L138.669 333H132.714L132.624 334.905ZM144.552 333.135C143.432 333.135 142.517 332.77 141.807 332.04C141.107 331.31 140.757 330.35 140.757 329.16V329.04C140.757 327.86 141.097 326.895 141.777 326.145C142.467 325.395 143.352 325.02 144.432 325.02C145.432 325.02 146.267 325.345 146.937 325.995C147.617 326.635 147.957 327.61 147.957 328.92V329.325H142.047C142.107 331.175 142.947 332.1 144.567 332.1C145.797 332.1 146.492 331.645 146.652 330.735H147.897C147.757 331.515 147.392 332.11 146.802 332.52C146.212 332.93 145.462 333.135 144.552 333.135ZM146.682 328.32C146.572 326.81 145.822 326.055 144.432 326.055C143.802 326.055 143.282 326.255 142.872 326.655C142.462 327.055 142.202 327.61 142.092 328.32H146.682ZM149.778 333V325.155H151.023V331.2L155.028 325.155H156.273V333H155.028V326.955L151.023 333H149.778ZM160.26 332.805C160.07 332.985 159.845 333.075 159.585 333.075C159.325 333.075 159.1 332.985 158.91 332.805C158.72 332.615 158.625 332.385 158.625 332.115C158.625 331.845 158.72 331.62 158.91 331.44C159.1 331.25 159.325 331.155 159.585 331.155C159.845 331.155 160.07 331.25 160.26 331.44C160.45 331.62 160.545 331.845 160.545 332.115C160.545 332.385 160.45 332.615 160.26 332.805ZM171.984 332.055C173.164 332.055 174.099 331.65 174.789 330.84C175.489 330.03 175.839 328.97 175.839 327.66V327.54C175.839 326.3 175.489 325.265 174.789 324.435C174.089 323.605 173.144 323.19 171.954 323.19C170.734 323.19 169.774 323.595 169.074 324.405C168.374 325.205 168.024 326.26 168.024 327.57V327.69C168.024 328.97 168.399 330.02 169.149 330.84C169.909 331.65 170.854 332.055 171.984 332.055ZM171.984 333.135C170.424 333.135 169.149 332.615 168.159 331.575C167.169 330.525 166.674 329.235 166.674 327.705V327.585C166.674 326.035 167.164 324.74 168.144 323.7C169.134 322.66 170.404 322.14 171.954 322.14C173.504 322.14 174.764 322.66 175.734 323.7C176.704 324.73 177.189 326.015 177.189 327.555V327.675C177.189 329.215 176.704 330.51 175.734 331.56C174.764 332.61 173.514 333.135 171.984 333.135ZM182.552 333.135C181.372 333.135 180.437 332.755 179.747 331.995C179.057 331.235 178.712 330.08 178.712 328.53V328.05C178.712 327.31 178.742 326.655 178.802 326.085C178.862 325.505 178.987 324.925 179.177 324.345C179.367 323.755 179.617 323.265 179.927 322.875C180.237 322.485 180.657 322.16 181.187 321.9C181.727 321.64 182.362 321.49 183.092 321.45L183.392 321.435C184.492 321.375 185.237 321.265 185.627 321.105L185.792 322.155C185.282 322.375 184.487 322.51 183.407 322.56L183.182 322.575C181.972 322.635 181.107 323.03 180.587 323.76C180.077 324.48 179.777 325.6 179.687 327.12H179.747C180.017 326.57 180.417 326.135 180.947 325.815C181.487 325.485 182.112 325.32 182.822 325.32C183.912 325.32 184.782 325.675 185.432 326.385C186.092 327.085 186.422 327.995 186.422 329.115V329.175C186.422 330.385 186.057 331.35 185.327 332.07C184.607 332.78 183.682 333.135 182.552 333.135ZM180.677 331.335C181.137 331.845 181.767 332.1 182.567 332.1C183.367 332.1 183.992 331.85 184.442 331.35C184.902 330.84 185.132 330.12 185.132 329.19V329.16C185.132 328.29 184.922 327.605 184.502 327.105C184.092 326.605 183.492 326.355 182.702 326.355C181.872 326.355 181.212 326.615 180.722 327.135C180.242 327.655 180.002 328.365 180.002 329.265V329.295C180.002 330.145 180.227 330.825 180.677 331.335ZM188.452 325.155H189.697V326.475C189.927 326.075 190.287 325.735 190.777 325.455C191.267 325.165 191.792 325.02 192.352 325.02C193.402 325.02 194.257 325.375 194.917 326.085C195.587 326.795 195.922 327.755 195.922 328.965V329.085C195.922 330.295 195.592 331.275 194.932 332.025C194.282 332.765 193.422 333.135 192.352 333.135C191.152 333.135 190.267 332.66 189.697 331.71V335.73H188.452V325.155ZM192.232 332.1C193.012 332.1 193.607 331.85 194.017 331.35C194.427 330.84 194.632 330.105 194.632 329.145V329.025C194.632 328.075 194.402 327.345 193.942 326.835C193.492 326.315 192.917 326.055 192.217 326.055C191.457 326.055 190.837 326.31 190.357 326.82C189.887 327.32 189.652 328.055 189.652 329.025V329.145C189.652 330.115 189.882 330.85 190.342 331.35C190.812 331.85 191.442 332.1 192.232 332.1ZM199.821 333.135C199.051 333.135 198.421 332.945 197.931 332.565C197.451 332.175 197.211 331.595 197.211 330.825C197.211 330.395 197.316 330.02 197.526 329.7C197.746 329.37 198.046 329.115 198.426 328.935C198.806 328.745 199.221 328.61 199.671 328.53C200.121 328.44 200.611 328.395 201.141 328.395H202.266V327.825C202.266 327.195 202.136 326.745 201.876 326.475C201.616 326.195 201.186 326.055 200.586 326.055C199.506 326.055 198.906 326.525 198.786 327.465H197.541C197.621 326.625 197.946 326.01 198.516 325.62C199.096 325.22 199.806 325.02 200.646 325.02C202.556 325.02 203.511 325.955 203.511 327.825V333H202.266V332.01C201.666 332.76 200.851 333.135 199.821 333.135ZM199.941 332.145C200.621 332.145 201.176 331.98 201.606 331.65C202.046 331.31 202.266 330.845 202.266 330.255V329.28H201.186C199.366 329.28 198.456 329.795 198.456 330.825C198.456 331.705 198.951 332.145 199.941 332.145ZM211.152 326.205H208.617V333H207.372V326.205H204.837V325.155H211.152V326.205ZM217.968 329.505H214.113V333H212.868V325.155H214.113V328.455H217.968V325.155H219.213V333H217.968V329.505ZM223.786 333.135C223.016 333.135 222.386 332.945 221.896 332.565C221.416 332.175 221.176 331.595 221.176 330.825C221.176 330.395 221.281 330.02 221.491 329.7C221.711 329.37 222.011 329.115 222.391 328.935C222.771 328.745 223.186 328.61 223.636 328.53C224.086 328.44 224.576 328.395 225.106 328.395H226.231V327.825C226.231 327.195 226.101 326.745 225.841 326.475C225.581 326.195 225.151 326.055 224.551 326.055C223.471 326.055 222.871 326.525 222.751 327.465H221.506C221.586 326.625 221.911 326.01 222.481 325.62C223.061 325.22 223.771 325.02 224.611 325.02C226.521 325.02 227.476 325.955 227.476 327.825V333H226.231V332.01C225.631 332.76 224.816 333.135 223.786 333.135ZM223.906 332.145C224.586 332.145 225.141 331.98 225.571 331.65C226.011 331.31 226.231 330.845 226.231 330.255V329.28H225.151C223.331 329.28 222.421 329.795 222.421 330.825C222.421 331.705 222.916 332.145 223.906 332.145ZM232.441 326.145C231.321 326.145 230.761 326.62 230.761 327.57V327.615C230.761 328.065 230.891 328.405 231.151 328.635C231.411 328.865 231.841 328.98 232.441 328.98H233.911V326.145H232.441ZM230.371 333H228.946L231.331 329.715C230.121 329.465 229.516 328.765 229.516 327.615V327.57C229.516 326.75 229.796 326.145 230.356 325.755C230.916 325.355 231.636 325.155 232.516 325.155H235.156V333H233.911V329.925H232.561L230.371 333ZM244.998 333.135C243.878 333.135 242.958 332.775 242.238 332.055C241.518 331.325 241.158 330.36 241.158 329.16V329.04C241.158 327.86 241.523 326.895 242.253 326.145C242.993 325.395 243.898 325.02 244.968 325.02C245.868 325.02 246.633 325.245 247.263 325.695C247.893 326.135 248.263 326.825 248.373 327.765H247.143C246.963 326.625 246.238 326.055 244.968 326.055C244.238 326.055 243.633 326.33 243.153 326.88C242.683 327.42 242.448 328.14 242.448 329.04V329.16C242.448 330.1 242.678 330.825 243.138 331.335C243.608 331.845 244.233 332.1 245.013 332.1C245.603 332.1 246.108 331.935 246.528 331.605C246.958 331.265 247.203 330.79 247.263 330.18H248.418C248.338 331.04 247.978 331.75 247.338 332.31C246.708 332.86 245.928 333.135 244.998 333.135ZM250.207 325.155H252.952C254.792 325.155 255.712 325.82 255.712 327.15V327.195C255.712 327.575 255.607 327.925 255.397 328.245C255.187 328.555 254.872 328.765 254.452 328.875C255.542 329.115 256.087 329.705 256.087 330.645V330.69C256.087 331.45 255.837 332.025 255.337 332.415C254.847 332.805 254.162 333 253.282 333H250.207V325.155ZM251.452 326.145V328.47H252.952C253.472 328.47 253.842 328.375 254.062 328.185C254.292 327.995 254.407 327.685 254.407 327.255V327.21C254.407 326.81 254.287 326.535 254.047 326.385C253.817 326.225 253.447 326.145 252.937 326.145H251.452ZM251.452 329.46V332.01H253.162C253.712 332.01 254.117 331.915 254.377 331.725C254.647 331.525 254.782 331.205 254.782 330.765V330.72C254.782 330.28 254.647 329.96 254.377 329.76C254.117 329.56 253.712 329.46 253.162 329.46H251.452ZM260.61 326.145C259.49 326.145 258.93 326.62 258.93 327.57V327.615C258.93 328.065 259.06 328.405 259.32 328.635C259.58 328.865 260.01 328.98 260.61 328.98H262.08V326.145H260.61ZM258.54 333H257.115L259.5 329.715C258.29 329.465 257.685 328.765 257.685 327.615V327.57C257.685 326.75 257.965 326.145 258.525 325.755C259.085 325.355 259.805 325.155 260.685 325.155H263.325V333H262.08V329.925H260.73L258.54 333ZM270.907 327.195C270.907 327.585 270.792 327.945 270.562 328.275C270.342 328.595 270.027 328.795 269.617 328.875C270.127 328.965 270.532 329.16 270.832 329.46C271.132 329.76 271.282 330.155 271.282 330.645V330.69C271.282 331.42 271.012 332.01 270.472 332.46C269.942 332.91 269.217 333.135 268.297 333.135C267.347 333.135 266.602 332.915 266.062 332.475C265.532 332.025 265.247 331.395 265.207 330.585H266.422C266.482 331.085 266.652 331.465 266.932 331.725C267.222 331.975 267.677 332.1 268.297 332.1C269.417 332.1 269.977 331.655 269.977 330.765V330.72C269.977 330.28 269.842 329.96 269.572 329.76C269.312 329.56 268.907 329.46 268.357 329.46H267.172V328.47H268.147C268.667 328.47 269.037 328.375 269.257 328.185C269.487 327.995 269.602 327.685 269.602 327.255V327.21C269.602 326.44 269.152 326.055 268.252 326.055C267.382 326.055 266.862 326.465 266.692 327.285H265.492C265.582 326.495 265.882 325.92 266.392 325.56C266.912 325.2 267.557 325.02 268.327 325.02C269.067 325.02 269.682 325.21 270.172 325.59C270.662 325.96 270.907 326.48 270.907 327.15V327.195ZM273.264 325.155H274.509V327.9H275.904C276.784 327.9 277.504 328.115 278.064 328.545C278.624 328.975 278.904 329.615 278.904 330.465V330.51C278.904 331.37 278.624 332 278.064 332.4C277.514 332.8 276.794 333 275.904 333H273.264V325.155ZM275.979 332.025C276.579 332.025 277.009 331.9 277.269 331.65C277.529 331.39 277.659 331.01 277.659 330.51V330.465C277.659 329.925 277.524 329.53 277.254 329.28C276.994 329.02 276.569 328.89 275.979 328.89H274.509V332.025H275.979Z" fill="white"/>
<rect x="38.5" y="315.5" width="266" height="25" rx="4.5" stroke="#CEA4F9"/>
<defs>
<filter id="filter0_d" x="0" y="0" width="398" height="545" filterUnits="userSpaceOnUse" color-interpolation-filters="sRGB">
<feFlood flood-opacity="0" result="BackgroundImageFix"/>
<feColorMatrix in="SourceAlpha" type="matrix" values="0 0 0 0 0 0 0 0 0 0 0 0 0 0 0 0 0 0 127 0"/>
<feMorphology radius="50" operator="erode" in="SourceAlpha" result="effect1_dropShadow"/>
<feOffset dy="59"/>
<feGaussianBlur stdDeviation="29.5"/>
<feColorMatrix type="matrix" values="0 0 0 0 0.836424 0 0 0 0 0.872378 0 0 0 0 0.908333 0 0 0 0.5 0"/>
<feBlend mode="normal" in2="BackgroundImageFix" result="effect1_dropShadow"/>
<feBlend mode="normal" in="SourceGraphic" in2="effect1_dropShadow" result="shape"/>
</filter>
</defs>
</svg>
