<svg width="18" height="18" viewBox="0 0 18 18" fill="none" xmlns="http://www.w3.org/2000/svg">
<path d="M15.3322 0H2.66784C1.19443 0 0 1.19443 0 2.66784V15.3322C0 16.8056 1.19443 18 2.66784 18H15.3322C16.8056 18 18 16.8056 18 15.3322V2.66784C18 1.19443 16.8056 0 15.3322 0Z" fill="#7ADAA2"/>
<path d="M5.1759 6.19844L4 7.39494V4H7.39164L6.21574 5.17704L8.08163 7.03502L7.00292 8.0856L5.1759 6.19844ZM8.09135 10.9942L6.21574 12.823L7.39164 14H4V10.6051L5.1759 11.7724L7.00292 9.9144L8.09135 10.9942ZM9.91837 7.03502L11.7843 5.17704L10.5986 4H13.9903V7.39494L12.8144 6.22763L10.9582 8.0856L9.91837 7.03502ZM14 10.6051V14H10.5986L11.7745 12.823L9.90865 10.9942L10.9582 9.9144L12.8144 11.7724L14 10.6051Z" fill="white"/>
</svg>
