<svg width="32" height="32" viewBox="0 0 32 32" fill="none" xmlns="http://www.w3.org/2000/svg">
<path d="M27.2572 0H4.74283C2.12344 0 0 2.12344 0 4.74283V27.2572C0 29.8766 2.12344 32 4.74283 32H27.2572C29.8766 32 32 29.8766 32 27.2572V4.74283C32 2.12344 29.8766 0 27.2572 0Z" fill="#F4B755"/>
<path d="M17.2121 11.7338V10.866H8.99614V17.5053H10.1389V19.3857H8.30183C7.96019 19.3821 7.63337 19.2457 7.39043 19.0055C7.1475 18.7652 7.00749 18.4399 7 18.0984V10.3018C7.00376 9.95773 7.14213 9.62879 7.38546 9.38546C7.62879 9.14213 7.95773 9.00376 8.30183 9H17.9499C18.1189 9.00189 18.2859 9.03706 18.4414 9.10351C18.5969 9.16996 18.7377 9.26638 18.8559 9.38727C18.9741 9.50815 19.0674 9.65114 19.1303 9.80807C19.1933 9.96499 19.2247 10.1328 19.2228 10.3018V11.7483L17.2121 11.7338ZM22.7956 13.4552C23.1345 13.459 23.4582 13.5963 23.6965 13.8373C23.9348 14.0783 24.0685 14.4036 24.0685 14.7425V22.7126C24.0685 23.0516 23.9348 23.3768 23.6965 23.6179C23.4582 23.8589 23.1345 23.9962 22.7956 24H13.1475C12.8084 23.9926 12.4852 23.8546 12.2454 23.6148C12.0055 23.3749 11.8675 23.0517 11.8602 22.7126V14.7425C11.8675 14.4034 12.0055 14.0802 12.2454 13.8404C12.4852 13.6005 12.8084 13.4625 13.1475 13.4552H22.7956ZM13.8418 15.3067V22.1485H22.1012V15.3067H13.8418Z" fill="white"/>
</svg>
