<svg width="24" height="16" viewBox="0 0 24 16" fill="none" xmlns="http://www.w3.org/2000/svg">
<path d="M23.8535 7.64647L16.3535 0.146466C16.1582 -0.0488625 15.8418 -0.0488625 15.6465 0.146466C15.4512 0.341794 15.4512 0.6582 15.6465 0.853481L22.293 7.49998H0.500016C0.223641 7.49998 0 7.72362 0 8C0 8.27637 0.223641 8.50001 0.500016 8.50001H22.293L15.6465 15.1465C15.4512 15.3418 15.4512 15.6582 15.6465 15.8535C15.7441 15.9511 15.8721 16 16 16C16.128 16 16.2559 15.9511 16.3536 15.8535L23.8536 8.35348C24.0488 8.1582 24.0488 7.84179 23.8535 7.64647Z" fill="#344756"/>
</svg>
